<?xml version="1.0" encoding="UTF-8"?>
<svg xmlns="http://www.w3.org/2000/svg" xmlns:xlink="http://www.w3.org/1999/xlink" width="397" height="675"><g transform="scale(1) translate(64,281)" style="fill:none;"><g transform="translate(-54,-271)"><path d="M55,271Q55,-14 170,10" stroke="#707070" stroke-width="1"/></g><g transform="translate(-54,-173)"><path d="M55,173Q55,-14 129,10" stroke="#707070" stroke-width="1"/></g><g transform="translate(-54,-73)"><path d="M55,73Q55,-14 129,10" stroke="#707070" stroke-width="1"/></g><g transform="translate(-54,-10)"><path d="M55,10Q55,71 129,47" stroke="#707070" stroke-width="1"/></g><g transform="translate(-54,-10)"><path d="M55,10Q55,151 129,127" stroke="#707070" stroke-width="1"/></g><g transform="translate(-54,-10)"><path d="M55,10Q55,231 129,207" stroke="#707070" stroke-width="1"/></g><g transform="translate(-54,-10)"><path d="M55,10Q55,403 167,379" stroke="#707070" stroke-width="1"/></g><g transform="translate(75,-173)"><path d="M65,10Q65,10 95,10" stroke="#707070" stroke-width="1"/></g><g transform="translate(75,-133)"><path d="M63,70Q63,-14 146,10" stroke="#707070" stroke-width="1"/></g><g transform="translate(75,-93)"><path d="M63,30Q63,-14 146,10" stroke="#707070" stroke-width="1"/></g><g transform="translate(75,-73)"><path d="M63,10Q63,54 146,30" stroke="#707070" stroke-width="1"/></g><g transform="translate(75,-73)"><path d="M63,10Q63,94 146,70" stroke="#707070" stroke-width="1"/></g><g transform="translate(75,67)"><path d="M39,50Q39,-14 98,10" stroke="#707070" stroke-width="1"/></g><g transform="translate(75,107)"><path d="M68,10Q68,10 98,10" stroke="#707070" stroke-width="1"/></g><g transform="translate(75,107)"><path d="M39,10Q39,74 98,50" stroke="#707070" stroke-width="1"/></g><g transform="translate(75,187)"><path d="M65,10Q65,10 95,10" stroke="#707070" stroke-width="1"/></g><g transform="translate(-54,-213)"><path d="M55,213Q55,-14 129,10" stroke="#707070" stroke-width="1"/></g><g transform="translate(-54 -10)"><rect x="0" y="0" width="109" height="20" rx="10" ry="10" style="fill:#22AAE0;stroke:#707070;stroke-width:1px;"/><g transform="translate (5 5) scale(0.00439453125)" style="fill:#4F4F4F;"><g transform="translate(6 2048) scale (1 -1)"><path d="M184 1462L639 1462Q950 1462 1090.5 1373.5Q1231 1285 1231 1092Q1231 961 1169.5 877Q1108 793 1006 776L1006 766Q1145 735 1206.5 650Q1268 565 1268 424Q1268 224 1123.5 112Q979 0 731 0L184 0ZM494 883L674 883Q800 883 856.5 922Q913 961 913 1051Q913 1135 851.5 1171.5Q790 1208 657 1208L494 1208ZM494 637L494 256L696 256Q824 256 885 305Q946 354 946 455Q946 637 686 637Z"/></g><g transform="translate(1382 2048) scale (1 -1)"><path d="M623 922Q526 922 471 860.5Q416 799 408 686L836 686Q834 799 777 860.5Q720 922 623 922ZM666 -20Q396 -20 244 129Q92 278 92 551Q92 832 232.5 985.5Q373 1139 621 1139Q858 1139 990 1004Q1122 869 1122 631L1122 483L401 483Q406 353 478 280Q550 207 680 207Q781 207 871 228Q961 249 1059 295L1059 59Q979 19 888 -0.5Q797 -20 666 -20Z"/></g><g transform="translate(2592 2048) scale (1 -1)"><path d="M774 -20Q577 -20 465 123L449 123Q465 -17 465 -39L465 -492L160 -492L160 1118L408 1118L451 973L465 973Q572 1139 782 1139Q980 1139 1092 986Q1204 833 1204 561Q1204 382 1151.5 250Q1099 118 1002 49Q905 -20 774 -20ZM684 895Q571 895 519 825.5Q467 756 465 596L465 563Q465 383 518.5 305Q572 227 688 227Q893 227 893 565Q893 730 842.5 812.5Q792 895 684 895Z"/></g><g transform="translate(3888 2048) scale (1 -1)"><path d="M614 -20Q92 -20 92 553Q92 838 234 988.5Q376 1139 641 1139Q835 1139 989 1063L899 827Q827 856 765 874.5Q703 893 641 893Q403 893 403 555Q403 227 641 227Q729 227 804 250.5Q879 274 954 324L954 63Q880 16 804.5 -2Q729 -20 614 -20Z"/></g><g transform="translate(4941 2048) scale (1 -1)"><path d="M1085 1118L1085 889L719 889L719 0L414 0L414 889L47 889L47 1118Z"/></g><g transform="translate(6074 2048) scale (1 -1)"><path d="M893 1118L1229 1118L786 582L1268 0L922 0L465 567L465 0L160 0L160 1118L465 1118L465 575Z"/></g><g transform="translate(7342 2048) scale (1 -1)"><path d="M870 0L811 152L803 152Q726 55 644.5 17.5Q563 -20 432 -20Q271 -20 178.5 72Q86 164 86 334Q86 512 210.5 596.5Q335 681 586 690L780 696L780 745Q780 915 606 915Q472 915 291 834L190 1040Q383 1141 618 1141Q843 1141 963 1043Q1083 945 1083 745L1083 0ZM780 518L662 514Q529 510 464 466Q399 422 399 332Q399 203 547 203Q653 203 716.5 264Q780 325 780 426Z"/></g><g transform="translate(9111 2048) scale (1 -1)"><path d="M1192 825Q1192 735 1135.5 671.5Q1079 608 969 590L969 582Q1088 568 1157.5 500.5Q1227 433 1227 334Q1227 171 1099 85.5Q971 0 733 0L160 0L160 1118L733 1118Q963 1118 1077.5 1043.5Q1192 969 1192 825ZM911 350Q911 416 860 445.5Q809 475 707 475L465 475L465 211L713 211Q810 211 860.5 247.5Q911 284 911 350ZM883 801Q883 903 721 903L465 903L465 682L686 682Q783 682 833 710Q883 738 883 801Z"/></g><g transform="translate(10420 2048) scale (1 -1)"><path d="M623 922Q526 922 471 860.5Q416 799 408 686L836 686Q834 799 777 860.5Q720 922 623 922ZM666 -20Q396 -20 244 129Q92 278 92 551Q92 832 232.5 985.5Q373 1139 621 1139Q858 1139 990 1004Q1122 869 1122 631L1122 483L401 483Q406 353 478 280Q550 207 680 207Q781 207 871 228Q961 249 1059 295L1059 59Q979 19 888 -0.5Q797 -20 666 -20Z"/></g><g transform="translate(11630 2048) scale (1 -1)"><path d="M92 670Q92 1055 238.5 1254.5Q385 1454 696 1507Q805 1526 915.5 1538.5Q1026 1551 1147 1567L1182 1300Q928 1271 794.5 1253Q661 1235 598 1213.5Q535 1192 494.5 1152Q454 1112 432 1046.5Q410 981 403 872L418 872Q471 954 558 998Q645 1042 745 1042Q952 1042 1067 915.5Q1182 789 1182 553Q1182 281 1036.5 130.5Q891 -20 635 -20Q379 -20 235.5 163.5Q92 347 92 670ZM653 227Q870 227 870 526Q870 817 674 817Q620 817 566.5 792Q513 767 468.5 726.5Q424 686 403 645Q403 442 468 334.5Q533 227 653 227Z"/></g><g transform="translate(12904 2048) scale (1 -1)"><path d="M61 424L61 674L598 674L598 424Z"/></g><g transform="translate(13563 2048) scale (1 -1)"><path d="M614 -20Q92 -20 92 553Q92 838 234 988.5Q376 1139 641 1139Q835 1139 989 1063L899 827Q827 856 765 874.5Q703 893 641 893Q403 893 403 555Q403 227 641 227Q729 227 804 250.5Q879 274 954 324L954 63Q880 16 804.5 -2Q729 -20 614 -20Z"/></g><g transform="translate(14616 2048) scale (1 -1)"><path d="M1085 1118L1085 889L719 889L719 0L414 0L414 889L47 889L47 1118Z"/></g><g transform="translate(15749 2048) scale (1 -1)"><path d="M774 -20Q577 -20 465 123L449 123Q465 -17 465 -39L465 -492L160 -492L160 1118L408 1118L451 973L465 973Q572 1139 782 1139Q980 1139 1092 986Q1204 833 1204 561Q1204 382 1151.5 250Q1099 118 1002 49Q905 -20 774 -20ZM684 895Q571 895 519 825.5Q467 756 465 596L465 563Q465 383 518.5 305Q572 227 688 227Q893 227 893 565Q893 730 842.5 812.5Q792 895 684 895Z"/></g><g transform="translate(17045 2048) scale (1 -1)"><path d="M870 0L811 152L803 152Q726 55 644.5 17.5Q563 -20 432 -20Q271 -20 178.5 72Q86 164 86 334Q86 512 210.5 596.5Q335 681 586 690L780 696L780 745Q780 915 606 915Q472 915 291 834L190 1040Q383 1141 618 1141Q843 1141 963 1043Q1083 945 1083 745L1083 0ZM780 518L662 514Q529 510 464 466Q399 422 399 332Q399 203 547 203Q653 203 716.5 264Q780 325 780 426Z"/></g><g transform="translate(18282 2048) scale (1 -1)"><path d="M465 1118L465 688L891 688L891 1118L1196 1118L1196 0L891 0L891 461L465 461L465 0L160 0L160 1118Z"/></g><g transform="translate(19638 2048) scale (1 -1)"><path d="M455 1118L455 676Q455 606 432 334L948 1118L1315 1118L1315 0L1020 0L1020 446Q1020 565 1040 782L526 0L160 0L160 1118Z"/></g><g transform="translate(21113 2048) scale (1 -1)"><path d="M1217 223L1380 223L1380 -401L1106 -401L1106 0L160 0L160 1118L465 1118L465 229L911 229L911 1118L1217 1118Z"/></g></g></g><g transform="translate(116 -271)"><rect x="0" y="0" width="51" height="20" rx="10" ry="10" style="fill:#E0E0E0;stroke:#707070;stroke-width:1px;"/><g transform="translate (5 5) scale(0.00439453125)" style="fill:#4F4F4F;"><g transform="translate(107.38888888888869 2048) scale (1 -1)"><path d="M184 1462L463 1462L463 756L459 567L449 352L455 352L1130 1462L1501 1462L1501 0L1225 0L1225 702Q1225 843 1243 1120L1235 1120L557 0L184 0Z"/></g><g transform="translate(1793.3888888888887 2048) scale (1 -1)"><path d="M614 -20Q92 -20 92 553Q92 838 234 988.5Q376 1139 641 1139Q835 1139 989 1063L899 827Q827 856 765 874.5Q703 893 641 893Q403 893 403 555Q403 227 641 227Q729 227 804 250.5Q879 274 954 324L954 63Q880 16 804.5 -2Q729 -20 614 -20Z"/></g><g transform="translate(2846.3888888888887 2048) scale (1 -1)"><path d="M1085 1118L1085 889L719 889L719 0L414 0L414 889L47 889L47 1118Z"/></g><g transform="translate(3979.3888888888887 2048) scale (1 -1)"><path d="M403 561Q403 395 457.5 310Q512 225 635 225Q757 225 810.5 309.5Q864 394 864 561Q864 727 810 810Q756 893 633 893Q511 893 457 810.5Q403 728 403 561ZM1176 561Q1176 288 1032 134Q888 -20 631 -20Q470 -20 347 50.5Q224 121 158 253Q92 385 92 561Q92 835 235 987Q378 1139 637 1139Q798 1139 921 1069Q1044 999 1110 868Q1176 737 1176 561Z"/></g><g transform="translate(5247.388888888889 2048) scale (1 -1)"><path d="M774 -20Q577 -20 465 123L449 123Q465 -17 465 -39L465 -492L160 -492L160 1118L408 1118L451 973L465 973Q572 1139 782 1139Q980 1139 1092 986Q1204 833 1204 561Q1204 382 1151.5 250Q1099 118 1002 49Q905 -20 774 -20ZM684 895Q571 895 519 825.5Q467 756 465 596L465 563Q465 383 518.5 305Q572 227 688 227Q893 227 893 565Q893 730 842.5 812.5Q792 895 684 895Z"/></g><g transform="translate(6543.388888888889 2048) scale (1 -1)"><path d="M455 1118L455 676Q455 606 432 334L948 1118L1315 1118L1315 0L1020 0L1020 446Q1020 565 1040 782L526 0L160 0L160 1118Z"/></g><g transform="translate(8018.388888888889 2048) scale (1 -1)"><path d="M330 0L0 0L301 442Q193 487 137.5 572Q82 657 82 772Q82 934 203.5 1026Q325 1118 535 1118L1055 1118L1055 0L750 0L750 416L582 416ZM381 770Q381 700 436 660.5Q491 621 580 621L750 621L750 903L541 903Q466 903 423.5 866.5Q381 830 381 770Z"/></g></g></g><g transform="translate(75 -173)"><rect x="0" y="0" width="75" height="20" rx="10" ry="10" style="fill:#E0E0E0;stroke:#707070;stroke-width:1px;"/><g transform="translate (5 5) scale(0.00439453125)" style="fill:#4F4F4F;"><g transform="translate(110.05555555555566 2048) scale (1 -1)"><path d="M1511 733Q1511 370 1331 175Q1151 -20 815 -20Q479 -20 299 175Q119 370 119 735Q119 1100 299.5 1292.5Q480 1485 817 1485Q1154 1485 1332.5 1291Q1511 1097 1511 733ZM444 733Q444 488 537 364Q630 240 815 240Q1186 240 1186 733Q1186 1227 817 1227Q632 1227 538 1102.5Q444 978 444 733Z"/></g><g transform="translate(1740.0555555555557 2048) scale (1 -1)"><path d="M932 1118L932 889L465 889L465 0L160 0L160 1118Z"/></g><g transform="translate(2719.0555555555557 2048) scale (1 -1)"><path d="M774 -20Q577 -20 465 123L449 123Q465 -17 465 -39L465 -492L160 -492L160 1118L408 1118L451 973L465 973Q572 1139 782 1139Q980 1139 1092 986Q1204 833 1204 561Q1204 382 1151.5 250Q1099 118 1002 49Q905 -20 774 -20ZM684 895Q571 895 519 825.5Q467 756 465 596L465 563Q465 383 518.5 305Q572 227 688 227Q893 227 893 565Q893 730 842.5 812.5Q792 895 684 895Z"/></g><g transform="translate(4015.0555555555557 2048) scale (1 -1)"><path d="M870 0L811 152L803 152Q726 55 644.5 17.5Q563 -20 432 -20Q271 -20 178.5 72Q86 164 86 334Q86 512 210.5 596.5Q335 681 586 690L780 696L780 745Q780 915 606 915Q472 915 291 834L190 1040Q383 1141 618 1141Q843 1141 963 1043Q1083 945 1083 745L1083 0ZM780 518L662 514Q529 510 464 466Q399 422 399 332Q399 203 547 203Q653 203 716.5 264Q780 325 780 426Z"/></g><g transform="translate(5252.055555555556 2048) scale (1 -1)"><path d="M465 1118L465 688L891 688L891 1118L1196 1118L1196 0L891 0L891 461L465 461L465 0L160 0L160 1118Z"/></g><g transform="translate(6608.055555555556 2048) scale (1 -1)"><path d="M455 1118L455 676Q455 606 432 334L948 1118L1315 1118L1315 0L1020 0L1020 446Q1020 565 1040 782L526 0L160 0L160 1118Z"/></g><g transform="translate(8083.055555555556 2048) scale (1 -1)"><path d="M428 1118L428 709Q428 563 563 563Q651 563 726.5 583Q802 603 879 635L879 1118L1184 1118L1184 0L879 0L879 444Q773 388 682 365Q591 342 506 342Q323 342 223 435.5Q123 529 123 702L123 1118Z"/></g><g transform="translate(9426.055555555555 2048) scale (1 -1)"><path d="M623 922Q526 922 471 860.5Q416 799 408 686L836 686Q834 799 777 860.5Q720 922 623 922ZM666 -20Q396 -20 244 129Q92 278 92 551Q92 832 232.5 985.5Q373 1139 621 1139Q858 1139 990 1004Q1122 869 1122 631L1122 483L401 483Q406 353 478 280Q550 207 680 207Q781 207 871 228Q961 249 1059 295L1059 59Q979 19 888 -0.5Q797 -20 666 -20Z"/></g><g transform="translate(10636.055555555555 2048) scale (1 -1)"><path d="M465 1118L465 688L891 688L891 1118L1196 1118L1196 0L891 0L891 461L465 461L465 0L160 0L160 1118Z"/></g><g transform="translate(11992.055555555555 2048) scale (1 -1)"><path d="M455 1118L455 676Q455 606 432 334L948 1118L1315 1118L1315 0L1020 0L1020 446Q1020 565 1040 782L526 0L160 0L160 1118Z"/></g><g transform="translate(13467.055555555555 2048) scale (1 -1)"><path d="M330 0L0 0L301 442Q193 487 137.5 572Q82 657 82 772Q82 934 203.5 1026Q325 1118 535 1118L1055 1118L1055 0L750 0L750 416L582 416ZM381 770Q381 700 436 660.5Q491 621 580 621L750 621L750 903L541 903Q466 903 423.5 866.5Q381 830 381 770Z"/></g></g></g><g transform="translate(75 -73)"><rect x="0" y="0" width="126" height="20" rx="10" ry="10" style="fill:#E0E0E0;stroke:#707070;stroke-width:1px;"/><g transform="translate (5 5) scale(0.00439453125)" style="fill:#4F4F4F;"><g transform="translate(6.222222222222626 2048) scale (1 -1)"><path d="M803 0L451 1147L442 1147Q461 797 461 680L461 0L184 0L184 1462L606 1462L952 344L958 344L1325 1462L1747 1462L1747 0L1458 0L1458 692Q1458 741 1459.5 805Q1461 869 1473 1145L1464 1145L1087 0Z"/></g><g transform="translate(1937.2222222222226 2048) scale (1 -1)"><path d="M403 561Q403 395 457.5 310Q512 225 635 225Q757 225 810.5 309.5Q864 394 864 561Q864 727 810 810Q756 893 633 893Q511 893 457 810.5Q403 728 403 561ZM1176 561Q1176 288 1032 134Q888 -20 631 -20Q470 -20 347 50.5Q224 121 158 253Q92 385 92 561Q92 835 235 987Q378 1139 637 1139Q798 1139 921 1069Q1044 999 1110 868Q1176 737 1176 561Z"/></g><g transform="translate(3205.2222222222226 2048) scale (1 -1)"><path d="M860 223L860 889L631 889Q606 703 562.5 536Q519 369 442 223ZM1329 -401L1055 -401L1055 0L303 0L303 -401L29 -401L29 223L123 223Q219 372 284 599Q349 826 375 1118L1165 1118L1165 223L1329 223Z"/></g><g transform="translate(4565.222222222223 2048) scale (1 -1)"><path d="M0 1118L334 1118L545 489Q572 407 582 295L588 295Q599 398 631 489L838 1118L1165 1118L692 -143Q627 -318 506.5 -405Q386 -492 225 -492Q146 -492 70 -475L70 -233Q125 -246 190 -246Q271 -246 331.5 -196.5Q392 -147 426 -47L444 8Z"/></g><g transform="translate(5730.222222222223 2048) scale (1 -1)"><path d="M1161 0L856 0L856 889L575 889Q543 514 497 329.5Q451 145 374.5 62.5Q298 -20 174 -20Q68 -20 0 12L0 256Q49 236 98 236Q155 236 193.5 318Q232 400 262.5 591.5Q293 783 315 1118L1161 1118Z"/></g><g transform="translate(7051.222222222223 2048) scale (1 -1)"><path d="M465 686L680 686Q938 686 1062 604Q1186 522 1186 356Q1186 0 692 0L160 0L160 1118L465 1118ZM881 352Q881 417 829 446Q777 475 674 475L465 475L465 211L678 211Q881 211 881 352Z"/></g><g transform="translate(8308.222222222223 2048) scale (1 -1)"><path d="M465 1118L465 688L891 688L891 1118L1196 1118L1196 0L891 0L891 461L465 461L465 0L160 0L160 1118Z"/></g><g transform="translate(9664.222222222223 2048) scale (1 -1)"><path d="M403 561Q403 395 457.5 310Q512 225 635 225Q757 225 810.5 309.5Q864 394 864 561Q864 727 810 810Q756 893 633 893Q511 893 457 810.5Q403 728 403 561ZM1176 561Q1176 288 1032 134Q888 -20 631 -20Q470 -20 347 50.5Q224 121 158 253Q92 385 92 561Q92 835 235 987Q378 1139 637 1139Q798 1139 921 1069Q1044 999 1110 868Q1176 737 1176 561Z"/></g><g transform="translate(10932.222222222223 2048) scale (1 -1)"><path d="M614 -20Q92 -20 92 553Q92 838 234 988.5Q376 1139 641 1139Q835 1139 989 1063L899 827Q827 856 765 874.5Q703 893 641 893Q403 893 403 555Q403 227 641 227Q729 227 804 250.5Q879 274 954 324L954 63Q880 16 804.5 -2Q729 -20 614 -20Z"/></g><g transform="translate(11985.222222222223 2048) scale (1 -1)"><path d="M1085 1118L1085 889L719 889L719 0L414 0L414 889L47 889L47 1118Z"/></g><g transform="translate(13118.222222222223 2048) scale (1 -1)"><path d="M465 686L680 686Q938 686 1062 604Q1186 522 1186 356Q1186 0 692 0L160 0L160 1118L465 1118ZM881 352Q881 417 829 446Q777 475 674 475L465 475L465 211L678 211Q881 211 881 352Z"/></g><g transform="translate(14907.222222222223 2048) scale (1 -1)"><path d="M455 1118L455 676Q455 606 432 334L948 1118L1315 1118L1315 0L1020 0L1020 446Q1020 565 1040 782L526 0L160 0L160 1118Z"/></g><g transform="translate(16914.222222222223 2048) scale (1 -1)"><path d="M1176 1118L1176 0L870 0L870 889L465 889L465 0L160 0L160 1118Z"/></g><g transform="translate(18249.222222222223 2048) scale (1 -1)"><path d="M403 561Q403 395 457.5 310Q512 225 635 225Q757 225 810.5 309.5Q864 394 864 561Q864 727 810 810Q756 893 633 893Q511 893 457 810.5Q403 728 403 561ZM1176 561Q1176 288 1032 134Q888 -20 631 -20Q470 -20 347 50.5Q224 121 158 253Q92 385 92 561Q92 835 235 987Q378 1139 637 1139Q798 1139 921 1069Q1044 999 1110 868Q1176 737 1176 561Z"/></g><g transform="translate(19517.222222222223 2048) scale (1 -1)"><path d="M860 223L860 889L631 889Q606 703 562.5 536Q519 369 442 223ZM1329 -401L1055 -401L1055 0L303 0L303 -401L29 -401L29 223L123 223Q219 372 284 599Q349 826 375 1118L1165 1118L1165 223L1329 223Z"/></g><g transform="translate(20877.222222222223 2048) scale (1 -1)"><path d="M389 571L29 1118L375 1118L592 762L811 1118L1157 1118L793 571L1174 0L827 0L592 383L356 0L10 0Z"/></g><g transform="translate(22061.222222222223 2048) scale (1 -1)"><path d="M403 561Q403 395 457.5 310Q512 225 635 225Q757 225 810.5 309.5Q864 394 864 561Q864 727 810 810Q756 893 633 893Q511 893 457 810.5Q403 728 403 561ZM1176 561Q1176 288 1032 134Q888 -20 631 -20Q470 -20 347 50.5Q224 121 158 253Q92 385 92 561Q92 835 235 987Q378 1139 637 1139Q798 1139 921 1069Q1044 999 1110 868Q1176 737 1176 561Z"/></g><g transform="translate(23329.222222222223 2048) scale (1 -1)"><path d="M860 223L860 889L631 889Q606 703 562.5 536Q519 369 442 223ZM1329 -401L1055 -401L1055 0L303 0L303 -401L29 -401L29 223L123 223Q219 372 284 599Q349 826 375 1118L1165 1118L1165 223L1329 223Z"/></g><g transform="translate(24689.222222222223 2048) scale (1 -1)"><path d="M465 686L612 686Q868 686 991 604Q1114 522 1114 356Q1114 179 991 89.5Q868 0 623 0L160 0L160 1118L465 1118ZM809 352Q809 417 757 446Q705 475 602 475L465 475L465 211L606 211Q809 211 809 352ZM1581 0L1276 0L1276 1118L1581 1118Z"/></g></g></g><g transform="translate(75 27)"><rect x="0" y="0" width="105" height="20" rx="10" ry="10" style="fill:#E0E0E0;stroke:#707070;stroke-width:1px;"/><g transform="translate (5 5) scale(0.00439453125)" style="fill:#4F4F4F;"><g transform="translate(74.38888888888869 2048) scale (1 -1)"><path d="M494 774L596 774Q739 774 810 830.5Q881 887 881 995Q881 1104 821.5 1156Q762 1208 635 1208L494 1208ZM1194 1006Q1194 770 1046.5 645Q899 520 627 520L494 520L494 0L184 0L184 1462L651 1462Q917 1462 1055.5 1347.5Q1194 1233 1194 1006Z"/></g><g transform="translate(1360.3888888888887 2048) scale (1 -1)"><path d="M870 0L811 152L803 152Q726 55 644.5 17.5Q563 -20 432 -20Q271 -20 178.5 72Q86 164 86 334Q86 512 210.5 596.5Q335 681 586 690L780 696L780 745Q780 915 606 915Q472 915 291 834L190 1040Q383 1141 618 1141Q843 1141 963 1043Q1083 945 1083 745L1083 0ZM780 518L662 514Q529 510 464 466Q399 422 399 332Q399 203 547 203Q653 203 716.5 264Q780 325 780 426Z"/></g><g transform="translate(2597.3888888888887 2048) scale (1 -1)"><path d="M438 688Q611 688 683.5 716Q756 744 756 805Q756 859 703 886Q650 913 528 913Q451 913 353.5 894Q256 875 176 842L86 1055Q205 1100 317 1119.5Q429 1139 567 1139Q776 1139 902 1059Q1028 979 1028 842Q1028 653 805 596L805 586Q942 552 1000.5 489.5Q1059 427 1059 326Q1059 224 993 145Q927 66 802 23Q677 -20 508 -20Q228 -20 78 49L78 301Q164 261 266.5 238Q369 215 465 215Q614 215 688 248.5Q762 282 762 344Q762 412 684 444.5Q606 477 444 477L326 477L326 688Z"/></g><g transform="translate(3734.3888888888887 2048) scale (1 -1)"><path d="M1569 0L1284 0L1284 881L1268 819Q1214 608 1171 500L973 0L756 0L555 504Q512 614 463 813L444 881L444 0L160 0L160 1118L580 1118L772 641Q802 564 827.5 464Q853 364 862 293Q895 443 913.5 508.5Q932 574 954 629Q976 684 1153 1118L1569 1118Z"/></g><g transform="translate(5463.388888888889 2048) scale (1 -1)"><path d="M623 922Q526 922 471 860.5Q416 799 408 686L836 686Q834 799 777 860.5Q720 922 623 922ZM666 -20Q396 -20 244 129Q92 278 92 551Q92 832 232.5 985.5Q373 1139 621 1139Q858 1139 990 1004Q1122 869 1122 631L1122 483L401 483Q406 353 478 280Q550 207 680 207Q781 207 871 228Q961 249 1059 295L1059 59Q979 19 888 -0.5Q797 -20 666 -20Z"/></g><g transform="translate(6673.388888888889 2048) scale (1 -1)"><path d="M1085 1118L1085 889L719 889L719 0L414 0L414 889L47 889L47 1118Z"/></g><g transform="translate(7806.388888888889 2048) scale (1 -1)"><path d="M893 1118L1229 1118L786 582L1268 0L922 0L465 567L465 0L160 0L160 1118L465 1118L465 575Z"/></g><g transform="translate(9074.388888888889 2048) scale (1 -1)"><path d="M870 0L811 152L803 152Q726 55 644.5 17.5Q563 -20 432 -20Q271 -20 178.5 72Q86 164 86 334Q86 512 210.5 596.5Q335 681 586 690L780 696L780 745Q780 915 606 915Q472 915 291 834L190 1040Q383 1141 618 1141Q843 1141 963 1043Q1083 945 1083 745L1083 0ZM780 518L662 514Q529 510 464 466Q399 422 399 332Q399 203 547 203Q653 203 716.5 264Q780 325 780 426Z"/></g><g transform="translate(10843.388888888889 2048) scale (1 -1)"><path d="M614 -20Q92 -20 92 553Q92 838 234 988.5Q376 1139 641 1139Q835 1139 989 1063L899 827Q827 856 765 874.5Q703 893 641 893Q403 893 403 555Q403 227 641 227Q729 227 804 250.5Q879 274 954 324L954 63Q880 16 804.5 -2Q729 -20 614 -20Z"/></g><g transform="translate(11896.388888888889 2048) scale (1 -1)"><path d="M1085 1118L1085 889L719 889L719 0L414 0L414 889L47 889L47 1118Z"/></g><g transform="translate(13029.388888888889 2048) scale (1 -1)"><path d="M774 -20Q577 -20 465 123L449 123Q465 -17 465 -39L465 -492L160 -492L160 1118L408 1118L451 973L465 973Q572 1139 782 1139Q980 1139 1092 986Q1204 833 1204 561Q1204 382 1151.5 250Q1099 118 1002 49Q905 -20 774 -20ZM684 895Q571 895 519 825.5Q467 756 465 596L465 563Q465 383 518.5 305Q572 227 688 227Q893 227 893 565Q893 730 842.5 812.5Q792 895 684 895Z"/></g><g transform="translate(14325.388888888889 2048) scale (1 -1)"><path d="M870 0L811 152L803 152Q726 55 644.5 17.5Q563 -20 432 -20Q271 -20 178.5 72Q86 164 86 334Q86 512 210.5 596.5Q335 681 586 690L780 696L780 745Q780 915 606 915Q472 915 291 834L190 1040Q383 1141 618 1141Q843 1141 963 1043Q1083 945 1083 745L1083 0ZM780 518L662 514Q529 510 464 466Q399 422 399 332Q399 203 547 203Q653 203 716.5 264Q780 325 780 426Z"/></g><g transform="translate(15562.388888888889 2048) scale (1 -1)"><path d="M465 1118L465 688L891 688L891 1118L1196 1118L1196 0L891 0L891 461L465 461L465 0L160 0L160 1118Z"/></g><g transform="translate(16918.38888888889 2048) scale (1 -1)"><path d="M455 1118L455 676Q455 606 432 334L948 1118L1315 1118L1315 0L1020 0L1020 446Q1020 565 1040 782L526 0L160 0L160 1118Z"/></g><g transform="translate(18393.38888888889 2048) scale (1 -1)"><path d="M1217 223L1380 223L1380 -401L1106 -401L1106 0L160 0L160 1118L465 1118L465 229L911 229L911 1118L1217 1118Z"/></g><g transform="translate(19802.38888888889 2048) scale (1 -1)"><path d="M465 686L612 686Q868 686 991 604Q1114 522 1114 356Q1114 179 991 89.5Q868 0 623 0L160 0L160 1118L465 1118ZM809 352Q809 417 757 446Q705 475 602 475L465 475L465 211L606 211Q809 211 809 352ZM1581 0L1276 0L1276 1118L1581 1118Z"/></g></g></g><g transform="translate(75 107)"><rect x="0" y="0" width="78" height="20" rx="10" ry="10" style="fill:#E0E0E0;stroke:#707070;stroke-width:1px;"/><g transform="translate (5 5) scale(0.00439453125)" style="fill:#4F4F4F;"><g transform="translate(65.38888888888869 2048) scale (1 -1)"><path d="M748 0L438 0L438 1204L41 1204L41 1462L1145 1462L1145 1204L748 1204Z"/></g><g transform="translate(1251.3888888888887 2048) scale (1 -1)"><path d="M455 1118L455 676Q455 606 432 334L948 1118L1315 1118L1315 0L1020 0L1020 446Q1020 565 1040 782L526 0L160 0L160 1118Z"/></g><g transform="translate(2726.3888888888887 2048) scale (1 -1)"><path d="M1176 1118L1176 0L870 0L870 889L465 889L465 0L160 0L160 1118Z"/></g><g transform="translate(4061.3888888888887 2048) scale (1 -1)"><path d="M465 686L612 686Q868 686 991 604Q1114 522 1114 356Q1114 179 991 89.5Q868 0 623 0L160 0L160 1118L465 1118ZM809 352Q809 417 757 446Q705 475 602 475L465 475L465 211L606 211Q809 211 809 352ZM1581 0L1276 0L1276 1118L1581 1118Z"/></g><g transform="translate(6334.388888888889 2048) scale (1 -1)"><path d="M1569 0L1284 0L1284 881L1268 819Q1214 608 1171 500L973 0L756 0L555 504Q512 614 463 813L444 881L444 0L160 0L160 1118L580 1118L772 641Q802 564 827.5 464Q853 364 862 293Q895 443 913.5 508.5Q932 574 954 629Q976 684 1153 1118L1569 1118Z"/></g><g transform="translate(8063.388888888889 2048) scale (1 -1)"><path d="M870 0L811 152L803 152Q726 55 644.5 17.5Q563 -20 432 -20Q271 -20 178.5 72Q86 164 86 334Q86 512 210.5 596.5Q335 681 586 690L780 696L780 745Q780 915 606 915Q472 915 291 834L190 1040Q383 1141 618 1141Q843 1141 963 1043Q1083 945 1083 745L1083 0ZM780 518L662 514Q529 510 464 466Q399 422 399 332Q399 203 547 203Q653 203 716.5 264Q780 325 780 426Z"/></g><g transform="translate(9300.388888888889 2048) scale (1 -1)"><path d="M893 1118L1229 1118L786 582L1268 0L922 0L465 567L465 0L160 0L160 1118L465 1118L465 575Z"/></g><g transform="translate(10568.388888888889 2048) scale (1 -1)"><path d="M623 922Q526 922 471 860.5Q416 799 408 686L836 686Q834 799 777 860.5Q720 922 623 922ZM666 -20Q396 -20 244 129Q92 278 92 551Q92 832 232.5 985.5Q373 1139 621 1139Q858 1139 990 1004Q1122 869 1122 631L1122 483L401 483Q406 353 478 280Q550 207 680 207Q781 207 871 228Q961 249 1059 295L1059 59Q979 19 888 -0.5Q797 -20 666 -20Z"/></g><g transform="translate(11778.388888888889 2048) scale (1 -1)"><path d="M1085 1118L1085 889L719 889L719 0L414 0L414 889L47 889L47 1118Z"/></g><g transform="translate(12911.388888888889 2048) scale (1 -1)"><path d="M403 561Q403 395 457.5 310Q512 225 635 225Q757 225 810.5 309.5Q864 394 864 561Q864 727 810 810Q756 893 633 893Q511 893 457 810.5Q403 728 403 561ZM1176 561Q1176 288 1032 134Q888 -20 631 -20Q470 -20 347 50.5Q224 121 158 253Q92 385 92 561Q92 835 235 987Q378 1139 637 1139Q798 1139 921 1069Q1044 999 1110 868Q1176 737 1176 561Z"/></g><g transform="translate(14179.388888888889 2048) scale (1 -1)"><path d="M1192 825Q1192 735 1135.5 671.5Q1079 608 969 590L969 582Q1088 568 1157.5 500.5Q1227 433 1227 334Q1227 171 1099 85.5Q971 0 733 0L160 0L160 1118L733 1118Q963 1118 1077.5 1043.5Q1192 969 1192 825ZM911 350Q911 416 860 445.5Q809 475 707 475L465 475L465 211L713 211Q810 211 860.5 247.5Q911 284 911 350ZM883 801Q883 903 721 903L465 903L465 682L686 682Q783 682 833 710Q883 738 883 801Z"/></g></g></g><g transform="translate(75 187)"><rect x="0" y="0" width="75" height="20" rx="10" ry="10" style="fill:#E0E0E0;stroke:#707070;stroke-width:1px;"/><g transform="translate (5 5) scale(0.00439453125)" style="fill:#4F4F4F;"><g transform="translate(74.05555555555566 2048) scale (1 -1)"><path d="M184 1462L639 1462Q950 1462 1090.5 1373.5Q1231 1285 1231 1092Q1231 961 1169.5 877Q1108 793 1006 776L1006 766Q1145 735 1206.5 650Q1268 565 1268 424Q1268 224 1123.5 112Q979 0 731 0L184 0ZM494 883L674 883Q800 883 856.5 922Q913 961 913 1051Q913 1135 851.5 1171.5Q790 1208 657 1208L494 1208ZM494 637L494 256L696 256Q824 256 885 305Q946 354 946 455Q946 637 686 637Z"/></g><g transform="translate(1450.0555555555557 2048) scale (1 -1)"><path d="M623 922Q526 922 471 860.5Q416 799 408 686L836 686Q834 799 777 860.5Q720 922 623 922ZM666 -20Q396 -20 244 129Q92 278 92 551Q92 832 232.5 985.5Q373 1139 621 1139Q858 1139 990 1004Q1122 869 1122 631L1122 483L401 483Q406 353 478 280Q550 207 680 207Q781 207 871 228Q961 249 1059 295L1059 59Q979 19 888 -0.5Q797 -20 666 -20Z"/></g><g transform="translate(2660.0555555555557 2048) scale (1 -1)"><path d="M774 -20Q577 -20 465 123L449 123Q465 -17 465 -39L465 -492L160 -492L160 1118L408 1118L451 973L465 973Q572 1139 782 1139Q980 1139 1092 986Q1204 833 1204 561Q1204 382 1151.5 250Q1099 118 1002 49Q905 -20 774 -20ZM684 895Q571 895 519 825.5Q467 756 465 596L465 563Q465 383 518.5 305Q572 227 688 227Q893 227 893 565Q893 730 842.5 812.5Q792 895 684 895Z"/></g><g transform="translate(3956.0555555555557 2048) scale (1 -1)"><path d="M614 -20Q92 -20 92 553Q92 838 234 988.5Q376 1139 641 1139Q835 1139 989 1063L899 827Q827 856 765 874.5Q703 893 641 893Q403 893 403 555Q403 227 641 227Q729 227 804 250.5Q879 274 954 324L954 63Q880 16 804.5 -2Q729 -20 614 -20Z"/></g><g transform="translate(5009.055555555556 2048) scale (1 -1)"><path d="M1085 1118L1085 889L719 889L719 0L414 0L414 889L47 889L47 1118Z"/></g><g transform="translate(6142.055555555556 2048) scale (1 -1)"><path d="M870 0L811 152L803 152Q726 55 644.5 17.5Q563 -20 432 -20Q271 -20 178.5 72Q86 164 86 334Q86 512 210.5 596.5Q335 681 586 690L780 696L780 745Q780 915 606 915Q472 915 291 834L190 1040Q383 1141 618 1141Q843 1141 963 1043Q1083 945 1083 745L1083 0ZM780 518L662 514Q529 510 464 466Q399 422 399 332Q399 203 547 203Q653 203 716.5 264Q780 325 780 426Z"/></g><g transform="translate(7379.055555555556 2048) scale (1 -1)"><path d="M1161 0L856 0L856 889L575 889Q543 514 497 329.5Q451 145 374.5 62.5Q298 -20 174 -20Q68 -20 0 12L0 256Q49 236 98 236Q155 236 193.5 318Q232 400 262.5 591.5Q293 783 315 1118L1161 1118Z"/></g><g transform="translate(8700.055555555555 2048) scale (1 -1)"><path d="M465 686L680 686Q938 686 1062 604Q1186 522 1186 356Q1186 0 692 0L160 0L160 1118L465 1118ZM881 352Q881 417 829 446Q777 475 674 475L465 475L465 211L678 211Q881 211 881 352Z"/></g><g transform="translate(9957.055555555555 2048) scale (1 -1)"><path d="M1825 223L1989 223L1989 -401L1714 -401L1714 0L160 0L160 1118L465 1118L465 229L840 229L840 1118L1145 1118L1145 229L1520 229L1520 1118L1825 1118Z"/></g><g transform="translate(11974.055555555555 2048) scale (1 -1)"><path d="M455 1118L455 676Q455 606 432 334L948 1118L1315 1118L1315 0L1020 0L1020 446Q1020 565 1040 782L526 0L160 0L160 1118Z"/></g><g transform="translate(13449.055555555555 2048) scale (1 -1)"><path d="M893 1118L1229 1118L786 582L1268 0L922 0L465 567L465 0L160 0L160 1118L465 1118L465 575Z"/></g></g></g><g transform="translate(113 353)"><rect x="0" y="0" width="101" height="31" rx="10" ry="10" style="fill:#E0E0E0;stroke:#707070;stroke-width:1px;"/><g transform="translate (5 5) scale(0.00439453125)" style="fill:#4F4F4F;"><g transform="translate(2932.2777777777774 2048) scale (1 -1)"><path d="M184 1462L639 1462Q950 1462 1090.5 1373.5Q1231 1285 1231 1092Q1231 961 1169.5 877Q1108 793 1006 776L1006 766Q1145 735 1206.5 650Q1268 565 1268 424Q1268 224 1123.5 112Q979 0 731 0L184 0ZM494 883L674 883Q800 883 856.5 922Q913 961 913 1051Q913 1135 851.5 1171.5Q790 1208 657 1208L494 1208ZM494 637L494 256L696 256Q824 256 885 305Q946 354 946 455Q946 637 686 637Z"/></g><g transform="translate(4308.277777777777 2048) scale (1 -1)"><path d="M870 0L811 152L803 152Q726 55 644.5 17.5Q563 -20 432 -20Q271 -20 178.5 72Q86 164 86 334Q86 512 210.5 596.5Q335 681 586 690L780 696L780 745Q780 915 606 915Q472 915 291 834L190 1040Q383 1141 618 1141Q843 1141 963 1043Q1083 945 1083 745L1083 0ZM780 518L662 514Q529 510 464 466Q399 422 399 332Q399 203 547 203Q653 203 716.5 264Q780 325 780 426Z"/></g><g transform="translate(5545.277777777777 2048) scale (1 -1)"><path d="M1161 0L856 0L856 889L575 889Q543 514 497 329.5Q451 145 374.5 62.5Q298 -20 174 -20Q68 -20 0 12L0 256Q49 236 98 236Q155 236 193.5 318Q232 400 262.5 591.5Q293 783 315 1118L1161 1118Z"/></g><g transform="translate(6866.277777777777 2048) scale (1 -1)"><path d="M455 1118L455 676Q455 606 432 334L948 1118L1315 1118L1315 0L1020 0L1020 446Q1020 565 1040 782L526 0L160 0L160 1118Z"/></g><g transform="translate(8341.277777777777 2048) scale (1 -1)"><path d="M860 223L860 889L631 889Q606 703 562.5 536Q519 369 442 223ZM1329 -401L1055 -401L1055 0L303 0L303 -401L29 -401L29 223L123 223Q219 372 284 599Q349 826 375 1118L1165 1118L1165 223L1329 223Z"/></g><g transform="translate(9701.277777777777 2048) scale (1 -1)"><path d="M465 1118L465 688L891 688L891 1118L1196 1118L1196 0L891 0L891 461L465 461L465 0L160 0L160 1118Z"/></g><g transform="translate(11057.277777777777 2048) scale (1 -1)"><path d="M403 561Q403 395 457.5 310Q512 225 635 225Q757 225 810.5 309.5Q864 394 864 561Q864 727 810 810Q756 893 633 893Q511 893 457 810.5Q403 728 403 561ZM1176 561Q1176 288 1032 134Q888 -20 631 -20Q470 -20 347 50.5Q224 121 158 253Q92 385 92 561Q92 835 235 987Q378 1139 637 1139Q798 1139 921 1069Q1044 999 1110 868Q1176 737 1176 561Z"/></g><g transform="translate(12325.277777777777 2048) scale (1 -1)"><path d="M614 -20Q92 -20 92 553Q92 838 234 988.5Q376 1139 641 1139Q835 1139 989 1063L899 827Q827 856 765 874.5Q703 893 641 893Q403 893 403 555Q403 227 641 227Q729 227 804 250.5Q879 274 954 324L954 63Q880 16 804.5 -2Q729 -20 614 -20Z"/></g><g transform="translate(13378.277777777777 2048) scale (1 -1)"><path d="M1085 1118L1085 889L719 889L719 0L414 0L414 889L47 889L47 1118Z"/></g><g transform="translate(14511.277777777777 2048) scale (1 -1)"><path d="M465 686L680 686Q938 686 1062 604Q1186 522 1186 356Q1186 0 692 0L160 0L160 1118L465 1118ZM881 352Q881 417 829 446Q777 475 674 475L465 475L465 211L678 211Q881 211 881 352Z"/></g><g transform="translate(16300.277777777777 2048) scale (1 -1)"><path d="M455 1118L455 676Q455 606 432 334L948 1118L1315 1118L1315 0L1020 0L1020 446Q1020 565 1040 782L526 0L160 0L160 1118Z"/></g><g transform="translate(43.777777777777374 4664.888888888889) scale (1 -1)"><path d="M893 1118L1229 1118L786 582L1268 0L922 0L465 567L465 0L160 0L160 1118L465 1118L465 575Z"/></g><g transform="translate(1311.7777777777774 4664.888888888889) scale (1 -1)"><path d="M774 -20Q577 -20 465 123L449 123Q465 -17 465 -39L465 -492L160 -492L160 1118L408 1118L451 973L465 973Q572 1139 782 1139Q980 1139 1092 986Q1204 833 1204 561Q1204 382 1151.5 250Q1099 118 1002 49Q905 -20 774 -20ZM684 895Q571 895 519 825.5Q467 756 465 596L465 563Q465 383 518.5 305Q572 227 688 227Q893 227 893 565Q893 730 842.5 812.5Q792 895 684 895Z"/></g><g transform="translate(2607.7777777777774 4664.888888888889) scale (1 -1)"><path d="M403 561Q403 395 457.5 310Q512 225 635 225Q757 225 810.5 309.5Q864 394 864 561Q864 727 810 810Q756 893 633 893Q511 893 457 810.5Q403 728 403 561ZM1176 561Q1176 288 1032 134Q888 -20 631 -20Q470 -20 347 50.5Q224 121 158 253Q92 385 92 561Q92 835 235 987Q378 1139 637 1139Q798 1139 921 1069Q1044 999 1110 868Q1176 737 1176 561Z"/></g><g transform="translate(3875.7777777777774 4664.888888888889) scale (1 -1)"><path d="M614 -20Q92 -20 92 553Q92 838 234 988.5Q376 1139 641 1139Q835 1139 989 1063L899 827Q827 856 765 874.5Q703 893 641 893Q403 893 403 555Q403 227 641 227Q729 227 804 250.5Q879 274 954 324L954 63Q880 16 804.5 -2Q729 -20 614 -20Z"/></g><g transform="translate(4928.777777777777 4664.888888888889) scale (1 -1)"><path d="M614 -20Q92 -20 92 553Q92 838 234 988.5Q376 1139 641 1139Q835 1139 989 1063L899 827Q827 856 765 874.5Q703 893 641 893Q403 893 403 555Q403 227 641 227Q729 227 804 250.5Q879 274 954 324L954 63Q880 16 804.5 -2Q729 -20 614 -20Z"/></g><g transform="translate(5981.777777777777 4664.888888888889) scale (1 -1)"><path d="M92 670Q92 1055 238.5 1254.5Q385 1454 696 1507Q805 1526 915.5 1538.5Q1026 1551 1147 1567L1182 1300Q928 1271 794.5 1253Q661 1235 598 1213.5Q535 1192 494.5 1152Q454 1112 432 1046.5Q410 981 403 872L418 872Q471 954 558 998Q645 1042 745 1042Q952 1042 1067 915.5Q1182 789 1182 553Q1182 281 1036.5 130.5Q891 -20 635 -20Q379 -20 235.5 163.5Q92 347 92 670ZM653 227Q870 227 870 526Q870 817 674 817Q620 817 566.5 792Q513 767 468.5 726.5Q424 686 403 645Q403 442 468 334.5Q533 227 653 227Z"/></g><g transform="translate(7255.777777777777 4664.888888888889) scale (1 -1)"><path d="M774 -20Q577 -20 465 123L449 123Q465 -17 465 -39L465 -492L160 -492L160 1118L408 1118L451 973L465 973Q572 1139 782 1139Q980 1139 1092 986Q1204 833 1204 561Q1204 382 1151.5 250Q1099 118 1002 49Q905 -20 774 -20ZM684 895Q571 895 519 825.5Q467 756 465 596L465 563Q465 383 518.5 305Q572 227 688 227Q893 227 893 565Q893 730 842.5 812.5Q792 895 684 895Z"/></g><g transform="translate(8551.777777777777 4664.888888888889) scale (1 -1)"><path d="M870 0L811 152L803 152Q726 55 644.5 17.5Q563 -20 432 -20Q271 -20 178.5 72Q86 164 86 334Q86 512 210.5 596.5Q335 681 586 690L780 696L780 745Q780 915 606 915Q472 915 291 834L190 1040Q383 1141 618 1141Q843 1141 963 1043Q1083 945 1083 745L1083 0ZM780 518L662 514Q529 510 464 466Q399 422 399 332Q399 203 547 203Q653 203 716.5 264Q780 325 780 426Z"/></g><g transform="translate(9788.777777777777 4664.888888888889) scale (1 -1)"><path d="M0 1118L334 1118L545 489Q572 407 582 295L588 295Q599 398 631 489L838 1118L1165 1118L692 -143Q627 -318 506.5 -405Q386 -492 225 -492Q146 -492 70 -475L70 -233Q125 -246 190 -246Q271 -246 331.5 -196.5Q392 -147 426 -47L444 8Z"/></g><g transform="translate(10953.777777777777 4664.888888888889) scale (1 -1)"><path d="M438 688Q611 688 683.5 716Q756 744 756 805Q756 859 703 886Q650 913 528 913Q451 913 353.5 894Q256 875 176 842L86 1055Q205 1100 317 1119.5Q429 1139 567 1139Q776 1139 902 1059Q1028 979 1028 842Q1028 653 805 596L805 586Q942 552 1000.5 489.5Q1059 427 1059 326Q1059 224 993 145Q927 66 802 23Q677 -20 508 -20Q228 -20 78 49L78 301Q164 261 266.5 238Q369 215 465 215Q614 215 688 248.5Q762 282 762 344Q762 412 684 444.5Q606 477 444 477L326 477L326 688Z"/></g><g transform="translate(12090.777777777777 4664.888888888889) scale (1 -1)"><path d="M623 922Q526 922 471 860.5Q416 799 408 686L836 686Q834 799 777 860.5Q720 922 623 922ZM666 -20Q396 -20 244 129Q92 278 92 551Q92 832 232.5 985.5Q373 1139 621 1139Q858 1139 990 1004Q1122 869 1122 631L1122 483L401 483Q406 353 478 280Q550 207 680 207Q781 207 871 228Q961 249 1059 295L1059 59Q979 19 888 -0.5Q797 -20 666 -20Z"/></g><g transform="translate(13300.777777777777 4664.888888888889) scale (1 -1)"><path d="M774 -20Q577 -20 465 123L449 123Q465 -17 465 -39L465 -492L160 -492L160 1118L408 1118L451 973L465 973Q572 1139 782 1139Q980 1139 1092 986Q1204 833 1204 561Q1204 382 1151.5 250Q1099 118 1002 49Q905 -20 774 -20ZM684 895Q571 895 519 825.5Q467 756 465 596L465 563Q465 383 518.5 305Q572 227 688 227Q893 227 893 565Q893 730 842.5 812.5Q792 895 684 895Z"/></g><g transform="translate(14596.777777777777 4664.888888888889) scale (1 -1)"><path d="M465 1118L465 688L891 688L891 1118L1196 1118L1196 0L891 0L891 461L465 461L465 0L160 0L160 1118Z"/></g><g transform="translate(15952.777777777777 4664.888888888889) scale (1 -1)"><path d="M403 561Q403 395 457.5 310Q512 225 635 225Q757 225 810.5 309.5Q864 394 864 561Q864 727 810 810Q756 893 633 893Q511 893 457 810.5Q403 728 403 561ZM1176 561Q1176 288 1032 134Q888 -20 631 -20Q470 -20 347 50.5Q224 121 158 253Q92 385 92 561Q92 835 235 987Q378 1139 637 1139Q798 1139 921 1069Q1044 999 1110 868Q1176 737 1176 561Z"/></g><g transform="translate(17220.777777777777 4664.888888888889) scale (1 -1)"><path d="M614 -20Q92 -20 92 553Q92 838 234 988.5Q376 1139 641 1139Q835 1139 989 1063L899 827Q827 856 765 874.5Q703 893 641 893Q403 893 403 555Q403 227 641 227Q729 227 804 250.5Q879 274 954 324L954 63Q880 16 804.5 -2Q729 -20 614 -20Z"/></g><g transform="translate(18273.777777777777 4664.888888888889) scale (1 -1)"><path d="M1085 1118L1085 889L719 889L719 0L414 0L414 889L47 889L47 1118Z"/></g><g transform="translate(19406.777777777777 4664.888888888889) scale (1 -1)"><path d="M465 686L680 686Q938 686 1062 604Q1186 522 1186 356Q1186 0 692 0L160 0L160 1118L465 1118ZM881 352Q881 417 829 446Q777 475 674 475L465 475L465 211L678 211Q881 211 881 352Z"/></g></g></g><g transform="translate(170 -173)"><rect x="0" y="0" width="130" height="20" rx="10" ry="10" style="fill:#E0E0E0;stroke:#707070;stroke-width:1px;"/><g transform="translate (5 5) scale(0.00439453125)" style="fill:#4F4F4F;"><g transform="translate(94.33333333333394 2048) scale (1 -1)"><path d="M803 0L451 1147L442 1147Q461 797 461 680L461 0L184 0L184 1462L606 1462L952 344L958 344L1325 1462L1747 1462L1747 0L1458 0L1458 692Q1458 741 1459.5 805Q1461 869 1473 1145L1464 1145L1087 0Z"/></g><g transform="translate(2025.333333333334 2048) scale (1 -1)"><path d="M465 1118L465 688L891 688L891 1118L1196 1118L1196 0L891 0L891 461L465 461L465 0L160 0L160 1118Z"/></g><g transform="translate(3381.333333333334 2048) scale (1 -1)"><path d="M403 561Q403 395 457.5 310Q512 225 635 225Q757 225 810.5 309.5Q864 394 864 561Q864 727 810 810Q756 893 633 893Q511 893 457 810.5Q403 728 403 561ZM1176 561Q1176 288 1032 134Q888 -20 631 -20Q470 -20 347 50.5Q224 121 158 253Q92 385 92 561Q92 835 235 987Q378 1139 637 1139Q798 1139 921 1069Q1044 999 1110 868Q1176 737 1176 561Z"/></g><g transform="translate(4649.333333333334 2048) scale (1 -1)"><path d="M932 1118L932 889L465 889L465 0L160 0L160 1118Z"/></g><g transform="translate(5628.333333333334 2048) scale (1 -1)"><path d="M403 561Q403 395 457.5 310Q512 225 635 225Q757 225 810.5 309.5Q864 394 864 561Q864 727 810 810Q756 893 633 893Q511 893 457 810.5Q403 728 403 561ZM1176 561Q1176 288 1032 134Q888 -20 631 -20Q470 -20 347 50.5Q224 121 158 253Q92 385 92 561Q92 835 235 987Q378 1139 637 1139Q798 1139 921 1069Q1044 999 1110 868Q1176 737 1176 561Z"/></g><g transform="translate(6896.333333333334 2048) scale (1 -1)"><path d="M403 561Q403 395 457.5 310Q512 225 635 225Q757 225 810.5 309.5Q864 394 864 561Q864 727 810 810Q756 893 633 893Q511 893 457 810.5Q403 728 403 561ZM1176 561Q1176 288 1032 134Q888 -20 631 -20Q470 -20 347 50.5Q224 121 158 253Q92 385 92 561Q92 835 235 987Q378 1139 637 1139Q798 1139 921 1069Q1044 999 1110 868Q1176 737 1176 561Z"/></g><g transform="translate(8164.333333333334 2048) scale (1 -1)"><path d="M92 670Q92 1055 238.5 1254.5Q385 1454 696 1507Q805 1526 915.5 1538.5Q1026 1551 1147 1567L1182 1300Q928 1271 794.5 1253Q661 1235 598 1213.5Q535 1192 494.5 1152Q454 1112 432 1046.5Q410 981 403 872L418 872Q471 954 558 998Q645 1042 745 1042Q952 1042 1067 915.5Q1182 789 1182 553Q1182 281 1036.5 130.5Q891 -20 635 -20Q379 -20 235.5 163.5Q92 347 92 670ZM653 227Q870 227 870 526Q870 817 674 817Q620 817 566.5 792Q513 767 468.5 726.5Q424 686 403 645Q403 442 468 334.5Q533 227 653 227Z"/></g><g transform="translate(9438.333333333334 2048) scale (1 -1)"><path d="M774 -20Q577 -20 465 123L449 123Q465 -17 465 -39L465 -492L160 -492L160 1118L408 1118L451 973L465 973Q572 1139 782 1139Q980 1139 1092 986Q1204 833 1204 561Q1204 382 1151.5 250Q1099 118 1002 49Q905 -20 774 -20ZM684 895Q571 895 519 825.5Q467 756 465 596L465 563Q465 383 518.5 305Q572 227 688 227Q893 227 893 565Q893 730 842.5 812.5Q792 895 684 895Z"/></g><g transform="translate(10734.333333333334 2048) scale (1 -1)"><path d="M870 0L811 152L803 152Q726 55 644.5 17.5Q563 -20 432 -20Q271 -20 178.5 72Q86 164 86 334Q86 512 210.5 596.5Q335 681 586 690L780 696L780 745Q780 915 606 915Q472 915 291 834L190 1040Q383 1141 618 1141Q843 1141 963 1043Q1083 945 1083 745L1083 0ZM780 518L662 514Q529 510 464 466Q399 422 399 332Q399 203 547 203Q653 203 716.5 264Q780 325 780 426Z"/></g><g transform="translate(11971.333333333334 2048) scale (1 -1)"><path d="M438 688Q611 688 683.5 716Q756 744 756 805Q756 859 703 886Q650 913 528 913Q451 913 353.5 894Q256 875 176 842L86 1055Q205 1100 317 1119.5Q429 1139 567 1139Q776 1139 902 1059Q1028 979 1028 842Q1028 653 805 596L805 586Q942 552 1000.5 489.5Q1059 427 1059 326Q1059 224 993 145Q927 66 802 23Q677 -20 508 -20Q228 -20 78 49L78 301Q164 261 266.5 238Q369 215 465 215Q614 215 688 248.5Q762 282 762 344Q762 412 684 444.5Q606 477 444 477L326 477L326 688Z"/></g><g transform="translate(13108.333333333334 2048) scale (1 -1)"><path d="M455 1118L455 676Q455 606 432 334L948 1118L1315 1118L1315 0L1020 0L1020 446Q1020 565 1040 782L526 0L160 0L160 1118Z"/></g><g transform="translate(14583.333333333334 2048) scale (1 -1)"><path d="M623 922Q526 922 471 860.5Q416 799 408 686L836 686Q834 799 777 860.5Q720 922 623 922ZM666 -20Q396 -20 244 129Q92 278 92 551Q92 832 232.5 985.5Q373 1139 621 1139Q858 1139 990 1004Q1122 869 1122 631L1122 483L401 483Q406 353 478 280Q550 207 680 207Q781 207 871 228Q961 249 1059 295L1059 59Q979 19 888 -0.5Q797 -20 666 -20Z"/></g><g transform="translate(16325.333333333334 2048) scale (1 -1)"><path d="M977 1124Q1257 1101 1416 951Q1575 801 1575 559Q1575 312 1418 163.5Q1261 15 977 -8L977 -492L694 -492L694 -8Q411 18 251.5 169.5Q92 321 92 559Q92 812 246 958.5Q400 1105 694 1124L694 1556L977 1556ZM406 559Q406 418 483 329.5Q560 241 694 223L694 895Q565 878 485.5 786Q406 694 406 559ZM1262 559Q1262 691 1187 781.5Q1112 872 977 891L977 223Q1110 241 1186 330Q1262 419 1262 559Z"/></g><g transform="translate(17992.333333333336 2048) scale (1 -1)"><path d="M403 561Q403 395 457.5 310Q512 225 635 225Q757 225 810.5 309.5Q864 394 864 561Q864 727 810 810Q756 893 633 893Q511 893 457 810.5Q403 728 403 561ZM1176 561Q1176 288 1032 134Q888 -20 631 -20Q470 -20 347 50.5Q224 121 158 253Q92 385 92 561Q92 835 235 987Q378 1139 637 1139Q798 1139 921 1069Q1044 999 1110 868Q1176 737 1176 561Z"/></g><g transform="translate(19260.333333333336 2048) scale (1 -1)"><path d="M774 -20Q577 -20 465 123L449 123Q465 -17 465 -39L465 -492L160 -492L160 1118L408 1118L451 973L465 973Q572 1139 782 1139Q980 1139 1092 986Q1204 833 1204 561Q1204 382 1151.5 250Q1099 118 1002 49Q905 -20 774 -20ZM684 895Q571 895 519 825.5Q467 756 465 596L465 563Q465 383 518.5 305Q572 227 688 227Q893 227 893 565Q893 730 842.5 812.5Q792 895 684 895Z"/></g><g transform="translate(20556.333333333336 2048) scale (1 -1)"><path d="M1569 0L1284 0L1284 881L1268 819Q1214 608 1171 500L973 0L756 0L555 504Q512 614 463 813L444 881L444 0L160 0L160 1118L580 1118L772 641Q802 564 827.5 464Q853 364 862 293Q895 443 913.5 508.5Q932 574 954 629Q976 684 1153 1118L1569 1118Z"/></g><g transform="translate(22285.333333333336 2048) scale (1 -1)"><path d="M870 0L811 152L803 152Q726 55 644.5 17.5Q563 -20 432 -20Q271 -20 178.5 72Q86 164 86 334Q86 512 210.5 596.5Q335 681 586 690L780 696L780 745Q780 915 606 915Q472 915 291 834L190 1040Q383 1141 618 1141Q843 1141 963 1043Q1083 945 1083 745L1083 0ZM780 518L662 514Q529 510 464 466Q399 422 399 332Q399 203 547 203Q653 203 716.5 264Q780 325 780 426Z"/></g><g transform="translate(23522.333333333336 2048) scale (1 -1)"><path d="M1085 1118L1085 889L719 889L719 0L414 0L414 889L47 889L47 1118Z"/></g><g transform="translate(24655.333333333336 2048) scale (1 -1)"><path d="M403 561Q403 395 457.5 310Q512 225 635 225Q757 225 810.5 309.5Q864 394 864 561Q864 727 810 810Q756 893 633 893Q511 893 457 810.5Q403 728 403 561ZM1176 561Q1176 288 1032 134Q888 -20 631 -20Q470 -20 347 50.5Q224 121 158 253Q92 385 92 561Q92 835 235 987Q378 1139 637 1139Q798 1139 921 1069Q1044 999 1110 868Q1176 737 1176 561Z"/></g><g transform="translate(25923.333333333336 2048) scale (1 -1)"><path d="M1192 825Q1192 735 1135.5 671.5Q1079 608 969 590L969 582Q1088 568 1157.5 500.5Q1227 433 1227 334Q1227 171 1099 85.5Q971 0 733 0L160 0L160 1118L733 1118Q963 1118 1077.5 1043.5Q1192 969 1192 825ZM911 350Q911 416 860 445.5Q809 475 707 475L465 475L465 211L713 211Q810 211 860.5 247.5Q911 284 911 350ZM883 801Q883 903 721 903L465 903L465 682L686 682Q783 682 833 710Q883 738 883 801Z"/></g></g></g><g transform="translate(221 -133)"><rect x="0" y="0" width="101" height="20" rx="10" ry="10" style="fill:#E0E0E0;stroke:#707070;stroke-width:1px;"/><g transform="translate (5 5) scale(0.00439453125)" style="fill:#4F4F4F;"><g transform="translate(6.277777777777374 2048) scale (1 -1)"><path d="M748 0L438 0L438 1204L41 1204L41 1462L1145 1462L1145 1204L748 1204Z"/></g><g transform="translate(1192.2777777777774 2048) scale (1 -1)"><path d="M870 0L811 152L803 152Q726 55 644.5 17.5Q563 -20 432 -20Q271 -20 178.5 72Q86 164 86 334Q86 512 210.5 596.5Q335 681 586 690L780 696L780 745Q780 915 606 915Q472 915 291 834L190 1040Q383 1141 618 1141Q843 1141 963 1043Q1083 945 1083 745L1083 0ZM780 518L662 514Q529 510 464 466Q399 422 399 332Q399 203 547 203Q653 203 716.5 264Q780 325 780 426Z"/></g><g transform="translate(2429.2777777777774 2048) scale (1 -1)"><path d="M92 670Q92 1055 238.5 1254.5Q385 1454 696 1507Q805 1526 915.5 1538.5Q1026 1551 1147 1567L1182 1300Q928 1271 794.5 1253Q661 1235 598 1213.5Q535 1192 494.5 1152Q454 1112 432 1046.5Q410 981 403 872L418 872Q471 954 558 998Q645 1042 745 1042Q952 1042 1067 915.5Q1182 789 1182 553Q1182 281 1036.5 130.5Q891 -20 635 -20Q379 -20 235.5 163.5Q92 347 92 670ZM653 227Q870 227 870 526Q870 817 674 817Q620 817 566.5 792Q513 767 468.5 726.5Q424 686 403 645Q403 442 468 334.5Q533 227 653 227Z"/></g><g transform="translate(3703.2777777777774 2048) scale (1 -1)"><path d="M1161 0L856 0L856 889L575 889Q543 514 497 329.5Q451 145 374.5 62.5Q298 -20 174 -20Q68 -20 0 12L0 256Q49 236 98 236Q155 236 193.5 318Q232 400 262.5 591.5Q293 783 315 1118L1161 1118Z"/></g><g transform="translate(5024.277777777777 2048) scale (1 -1)"><path d="M455 1118L455 676Q455 606 432 334L948 1118L1315 1118L1315 0L1020 0L1020 446Q1020 565 1040 782L526 0L160 0L160 1118Z"/></g><g transform="translate(6499.277777777777 2048) scale (1 -1)"><path d="M428 1118L428 709Q428 563 563 563Q651 563 726.5 583Q802 603 879 635L879 1118L1184 1118L1184 0L879 0L879 444Q773 388 682 365Q591 342 506 342Q323 342 223 435.5Q123 529 123 702L123 1118Z"/></g><g transform="translate(7842.277777777777 2048) scale (1 -1)"><path d="M465 1118L465 688L891 688L891 1118L1196 1118L1196 0L891 0L891 461L465 461L465 0L160 0L160 1118Z"/></g><g transform="translate(9198.277777777777 2048) scale (1 -1)"><path d="M465 686L612 686Q868 686 991 604Q1114 522 1114 356Q1114 179 991 89.5Q868 0 623 0L160 0L160 1118L465 1118ZM809 352Q809 417 757 446Q705 475 602 475L465 475L465 211L606 211Q809 211 809 352ZM1581 0L1276 0L1276 1118L1581 1118Z"/></g><g transform="translate(10939.277777777777 2048) scale (1 -1)"><path d="M455 1118L455 676Q455 606 432 334L948 1118L1315 1118L1315 0L1020 0L1020 446Q1020 565 1040 782L526 0L160 0L160 1118ZM1225 1599Q1206 1412 1084 1326.5Q962 1241 732 1241Q495 1241 381.5 1323Q268 1405 254 1599L527 1599Q534 1496 578.5 1454.5Q623 1413 738 1413Q839 1413 888.5 1458.5Q938 1504 949 1599Z"/></g><g transform="translate(12946.277777777777 2048) scale (1 -1)"><path d="M1176 1118L1176 0L870 0L870 889L465 889L465 0L160 0L160 1118Z"/></g><g transform="translate(14281.277777777777 2048) scale (1 -1)"><path d="M403 561Q403 395 457.5 310Q512 225 635 225Q757 225 810.5 309.5Q864 394 864 561Q864 727 810 810Q756 893 633 893Q511 893 457 810.5Q403 728 403 561ZM1176 561Q1176 288 1032 134Q888 -20 631 -20Q470 -20 347 50.5Q224 121 158 253Q92 385 92 561Q92 835 235 987Q378 1139 637 1139Q798 1139 921 1069Q1044 999 1110 868Q1176 737 1176 561Z"/></g><g transform="translate(15549.277777777777 2048) scale (1 -1)"><path d="M860 223L860 889L631 889Q606 703 562.5 536Q519 369 442 223ZM1329 -401L1055 -401L1055 0L303 0L303 -401L29 -401L29 223L123 223Q219 372 284 599Q349 826 375 1118L1165 1118L1165 223L1329 223Z"/></g><g transform="translate(16909.277777777777 2048) scale (1 -1)"><path d="M389 571L29 1118L375 1118L592 762L811 1118L1157 1118L793 571L1174 0L827 0L592 383L356 0L10 0Z"/></g><g transform="translate(18093.277777777777 2048) scale (1 -1)"><path d="M403 561Q403 395 457.5 310Q512 225 635 225Q757 225 810.5 309.5Q864 394 864 561Q864 727 810 810Q756 893 633 893Q511 893 457 810.5Q403 728 403 561ZM1176 561Q1176 288 1032 134Q888 -20 631 -20Q470 -20 347 50.5Q224 121 158 253Q92 385 92 561Q92 835 235 987Q378 1139 637 1139Q798 1139 921 1069Q1044 999 1110 868Q1176 737 1176 561Z"/></g><g transform="translate(19361.277777777777 2048) scale (1 -1)"><path d="M860 223L860 889L631 889Q606 703 562.5 536Q519 369 442 223ZM1329 -401L1055 -401L1055 0L303 0L303 -401L29 -401L29 223L123 223Q219 372 284 599Q349 826 375 1118L1165 1118L1165 223L1329 223Z"/></g></g></g><g transform="translate(221 -93)"><rect x="0" y="0" width="86" height="20" rx="10" ry="10" style="fill:#E0E0E0;stroke:#707070;stroke-width:1px;"/><g transform="translate (5 5) scale(0.00439453125)" style="fill:#4F4F4F;"><g transform="translate(64.61111111111131 2048) scale (1 -1)"><path d="M184 1462L639 1462Q950 1462 1090.5 1373.5Q1231 1285 1231 1092Q1231 961 1169.5 877Q1108 793 1006 776L1006 766Q1145 735 1206.5 650Q1268 565 1268 424Q1268 224 1123.5 112Q979 0 731 0L184 0ZM494 883L674 883Q800 883 856.5 922Q913 961 913 1051Q913 1135 851.5 1171.5Q790 1208 657 1208L494 1208ZM494 637L494 256L696 256Q824 256 885 305Q946 354 946 455Q946 637 686 637Z"/></g><g transform="translate(1440.6111111111113 2048) scale (1 -1)"><path d="M623 922Q526 922 471 860.5Q416 799 408 686L836 686Q834 799 777 860.5Q720 922 623 922ZM666 -20Q396 -20 244 129Q92 278 92 551Q92 832 232.5 985.5Q373 1139 621 1139Q858 1139 990 1004Q1122 869 1122 631L1122 483L401 483Q406 353 478 280Q550 207 680 207Q781 207 871 228Q961 249 1059 295L1059 59Q979 19 888 -0.5Q797 -20 666 -20Z"/></g><g transform="translate(2650.6111111111113 2048) scale (1 -1)"><path d="M774 -20Q577 -20 465 123L449 123Q465 -17 465 -39L465 -492L160 -492L160 1118L408 1118L451 973L465 973Q572 1139 782 1139Q980 1139 1092 986Q1204 833 1204 561Q1204 382 1151.5 250Q1099 118 1002 49Q905 -20 774 -20ZM684 895Q571 895 519 825.5Q467 756 465 596L465 563Q465 383 518.5 305Q572 227 688 227Q893 227 893 565Q893 730 842.5 812.5Q792 895 684 895Z"/></g><g transform="translate(3946.6111111111113 2048) scale (1 -1)"><path d="M614 -20Q92 -20 92 553Q92 838 234 988.5Q376 1139 641 1139Q835 1139 989 1063L899 827Q827 856 765 874.5Q703 893 641 893Q403 893 403 555Q403 227 641 227Q729 227 804 250.5Q879 274 954 324L954 63Q880 16 804.5 -2Q729 -20 614 -20Z"/></g><g transform="translate(4999.611111111111 2048) scale (1 -1)"><path d="M1085 1118L1085 889L719 889L719 0L414 0L414 889L47 889L47 1118Z"/></g><g transform="translate(6132.611111111111 2048) scale (1 -1)"><path d="M893 1118L1229 1118L786 582L1268 0L922 0L465 567L465 0L160 0L160 1118L465 1118L465 575Z"/></g><g transform="translate(7400.611111111111 2048) scale (1 -1)"><path d="M870 0L811 152L803 152Q726 55 644.5 17.5Q563 -20 432 -20Q271 -20 178.5 72Q86 164 86 334Q86 512 210.5 596.5Q335 681 586 690L780 696L780 745Q780 915 606 915Q472 915 291 834L190 1040Q383 1141 618 1141Q843 1141 963 1043Q1083 945 1083 745L1083 0ZM780 518L662 514Q529 510 464 466Q399 422 399 332Q399 203 547 203Q653 203 716.5 264Q780 325 780 426Z"/></g><g transform="translate(9169.611111111111 2048) scale (1 -1)"><path d="M614 -20Q92 -20 92 553Q92 838 234 988.5Q376 1139 641 1139Q835 1139 989 1063L899 827Q827 856 765 874.5Q703 893 641 893Q403 893 403 555Q403 227 641 227Q729 227 804 250.5Q879 274 954 324L954 63Q880 16 804.5 -2Q729 -20 614 -20Z"/></g><g transform="translate(10222.611111111111 2048) scale (1 -1)"><path d="M1161 0L856 0L856 889L575 889Q543 514 497 329.5Q451 145 374.5 62.5Q298 -20 174 -20Q68 -20 0 12L0 256Q49 236 98 236Q155 236 193.5 318Q232 400 262.5 591.5Q293 783 315 1118L1161 1118Z"/></g><g transform="translate(11543.611111111111 2048) scale (1 -1)"><path d="M403 561Q403 395 457.5 310Q512 225 635 225Q757 225 810.5 309.5Q864 394 864 561Q864 727 810 810Q756 893 633 893Q511 893 457 810.5Q403 728 403 561ZM1176 561Q1176 288 1032 134Q888 -20 631 -20Q470 -20 347 50.5Q224 121 158 253Q92 385 92 561Q92 835 235 987Q378 1139 637 1139Q798 1139 921 1069Q1044 999 1110 868Q1176 737 1176 561Z"/></g><g transform="translate(12811.611111111111 2048) scale (1 -1)"><path d="M330 0L0 0L301 442Q193 487 137.5 572Q82 657 82 772Q82 934 203.5 1026Q325 1118 535 1118L1055 1118L1055 0L750 0L750 416L582 416ZM381 770Q381 700 436 660.5Q491 621 580 621L750 621L750 903L541 903Q466 903 423.5 866.5Q381 830 381 770Z"/></g><g transform="translate(14025.611111111111 2048) scale (1 -1)"><path d="M1569 0L1284 0L1284 881L1268 819Q1214 608 1171 500L973 0L756 0L555 504Q512 614 463 813L444 881L444 0L160 0L160 1118L580 1118L772 641Q802 564 827.5 464Q853 364 862 293Q895 443 913.5 508.5Q932 574 954 629Q976 684 1153 1118L1569 1118Z"/></g><g transform="translate(15754.611111111111 2048) scale (1 -1)"><path d="M455 1118L455 676Q455 606 432 334L948 1118L1315 1118L1315 0L1020 0L1020 446Q1020 565 1040 782L526 0L160 0L160 1118Z"/></g></g></g><g transform="translate(221 -53)"><rect x="0" y="0" width="90" height="20" rx="10" ry="10" style="fill:#E0E0E0;stroke:#707070;stroke-width:1px;"/><g transform="translate (5 5) scale(0.00439453125)" style="fill:#4F4F4F;"><g transform="translate(65.22222222222263 2048) scale (1 -1)"><path d="M494 901L616 901Q902 901 1058 785Q1214 669 1214 457Q1214 0 610 0L184 0L184 1462L1108 1462L1108 1206L494 1206ZM494 254L598 254Q755 254 828 304.5Q901 355 901 457Q901 558 827 602.5Q753 647 573 647L494 647Z"/></g><g transform="translate(1372.2222222222226 2048) scale (1 -1)"><path d="M1161 0L856 0L856 889L575 889Q543 514 497 329.5Q451 145 374.5 62.5Q298 -20 174 -20Q68 -20 0 12L0 256Q49 236 98 236Q155 236 193.5 318Q232 400 262.5 591.5Q293 783 315 1118L1161 1118Z"/></g><g transform="translate(2693.2222222222226 2048) scale (1 -1)"><path d="M403 561Q403 395 457.5 310Q512 225 635 225Q757 225 810.5 309.5Q864 394 864 561Q864 727 810 810Q756 893 633 893Q511 893 457 810.5Q403 728 403 561ZM1176 561Q1176 288 1032 134Q888 -20 631 -20Q470 -20 347 50.5Q224 121 158 253Q92 385 92 561Q92 835 235 987Q378 1139 637 1139Q798 1139 921 1069Q1044 999 1110 868Q1176 737 1176 561Z"/></g><g transform="translate(3961.2222222222226 2048) scale (1 -1)"><path d="M428 1118L428 709Q428 563 563 563Q651 563 726.5 583Q802 603 879 635L879 1118L1184 1118L1184 0L879 0L879 444Q773 388 682 365Q591 342 506 342Q323 342 223 435.5Q123 529 123 702L123 1118Z"/></g><g transform="translate(5304.222222222223 2048) scale (1 -1)"><path d="M465 1118L465 688L891 688L891 1118L1196 1118L1196 0L891 0L891 461L465 461L465 0L160 0L160 1118Z"/></g><g transform="translate(6660.222222222223 2048) scale (1 -1)"><path d="M870 0L811 152L803 152Q726 55 644.5 17.5Q563 -20 432 -20Q271 -20 178.5 72Q86 164 86 334Q86 512 210.5 596.5Q335 681 586 690L780 696L780 745Q780 915 606 915Q472 915 291 834L190 1040Q383 1141 618 1141Q843 1141 963 1043Q1083 945 1083 745L1083 0ZM780 518L662 514Q529 510 464 466Q399 422 399 332Q399 203 547 203Q653 203 716.5 264Q780 325 780 426Z"/></g><g transform="translate(7897.222222222223 2048) scale (1 -1)"><path d="M330 0L0 0L301 442Q193 487 137.5 572Q82 657 82 772Q82 934 203.5 1026Q325 1118 535 1118L1055 1118L1055 0L750 0L750 416L582 416ZM381 770Q381 700 436 660.5Q491 621 580 621L750 621L750 903L541 903Q466 903 423.5 866.5Q381 830 381 770Z"/></g><g transform="translate(9643.222222222223 2048) scale (1 -1)"><path d="M1192 825Q1192 735 1135.5 671.5Q1079 608 969 590L969 582Q1088 568 1157.5 500.5Q1227 433 1227 334Q1227 171 1099 85.5Q971 0 733 0L160 0L160 1118L733 1118Q963 1118 1077.5 1043.5Q1192 969 1192 825ZM911 350Q911 416 860 445.5Q809 475 707 475L465 475L465 211L713 211Q810 211 860.5 247.5Q911 284 911 350ZM883 801Q883 903 721 903L465 903L465 682L686 682Q783 682 833 710Q883 738 883 801Z"/></g><g transform="translate(10952.222222222223 2048) scale (1 -1)"><path d="M623 922Q526 922 471 860.5Q416 799 408 686L836 686Q834 799 777 860.5Q720 922 623 922ZM666 -20Q396 -20 244 129Q92 278 92 551Q92 832 232.5 985.5Q373 1139 621 1139Q858 1139 990 1004Q1122 869 1122 631L1122 483L401 483Q406 353 478 280Q550 207 680 207Q781 207 871 228Q961 249 1059 295L1059 59Q979 19 888 -0.5Q797 -20 666 -20Z"/></g><g transform="translate(12162.222222222223 2048) scale (1 -1)"><path d="M774 -20Q577 -20 465 123L449 123Q465 -17 465 -39L465 -492L160 -492L160 1118L408 1118L451 973L465 973Q572 1139 782 1139Q980 1139 1092 986Q1204 833 1204 561Q1204 382 1151.5 250Q1099 118 1002 49Q905 -20 774 -20ZM684 895Q571 895 519 825.5Q467 756 465 596L465 563Q465 383 518.5 305Q572 227 688 227Q893 227 893 565Q893 730 842.5 812.5Q792 895 684 895Z"/></g><g transform="translate(13458.222222222223 2048) scale (1 -1)"><path d="M614 -20Q92 -20 92 553Q92 838 234 988.5Q376 1139 641 1139Q835 1139 989 1063L899 827Q827 856 765 874.5Q703 893 641 893Q403 893 403 555Q403 227 641 227Q729 227 804 250.5Q879 274 954 324L954 63Q880 16 804.5 -2Q729 -20 614 -20Z"/></g><g transform="translate(14511.222222222223 2048) scale (1 -1)"><path d="M1085 1118L1085 889L719 889L719 0L414 0L414 889L47 889L47 1118Z"/></g><g transform="translate(15644.222222222223 2048) scale (1 -1)"><path d="M893 1118L1229 1118L786 582L1268 0L922 0L465 567L465 0L160 0L160 1118L465 1118L465 575Z"/></g><g transform="translate(16912.222222222223 2048) scale (1 -1)"><path d="M870 0L811 152L803 152Q726 55 644.5 17.5Q563 -20 432 -20Q271 -20 178.5 72Q86 164 86 334Q86 512 210.5 596.5Q335 681 586 690L780 696L780 745Q780 915 606 915Q472 915 291 834L190 1040Q383 1141 618 1141Q843 1141 963 1043Q1083 945 1083 745L1083 0ZM780 518L662 514Q529 510 464 466Q399 422 399 332Q399 203 547 203Q653 203 716.5 264Q780 325 780 426Z"/></g></g></g><g transform="translate(221 -13)"><rect x="0" y="0" width="102" height="20" rx="10" ry="10" style="fill:#E0E0E0;stroke:#707070;stroke-width:1px;"/><g transform="translate (5 5) scale(0.00439453125)" style="fill:#4F4F4F;"><g transform="translate(6.055555555554747 2048) scale (1 -1)"><path d="M184 1462L639 1462Q950 1462 1090.5 1373.5Q1231 1285 1231 1092Q1231 961 1169.5 877Q1108 793 1006 776L1006 766Q1145 735 1206.5 650Q1268 565 1268 424Q1268 224 1123.5 112Q979 0 731 0L184 0ZM494 883L674 883Q800 883 856.5 922Q913 961 913 1051Q913 1135 851.5 1171.5Q790 1208 657 1208L494 1208ZM494 637L494 256L696 256Q824 256 885 305Q946 354 946 455Q946 637 686 637Z"/></g><g transform="translate(1382.0555555555547 2048) scale (1 -1)"><path d="M623 922Q526 922 471 860.5Q416 799 408 686L836 686Q834 799 777 860.5Q720 922 623 922ZM666 -20Q396 -20 244 129Q92 278 92 551Q92 832 232.5 985.5Q373 1139 621 1139Q858 1139 990 1004Q1122 869 1122 631L1122 483L401 483Q406 353 478 280Q550 207 680 207Q781 207 871 228Q961 249 1059 295L1059 59Q979 19 888 -0.5Q797 -20 666 -20Z"/></g><g transform="translate(2592.0555555555547 2048) scale (1 -1)"><path d="M774 -20Q577 -20 465 123L449 123Q465 -17 465 -39L465 -492L160 -492L160 1118L408 1118L451 973L465 973Q572 1139 782 1139Q980 1139 1092 986Q1204 833 1204 561Q1204 382 1151.5 250Q1099 118 1002 49Q905 -20 774 -20ZM684 895Q571 895 519 825.5Q467 756 465 596L465 563Q465 383 518.5 305Q572 227 688 227Q893 227 893 565Q893 730 842.5 812.5Q792 895 684 895Z"/></g><g transform="translate(3888.0555555555547 2048) scale (1 -1)"><path d="M614 -20Q92 -20 92 553Q92 838 234 988.5Q376 1139 641 1139Q835 1139 989 1063L899 827Q827 856 765 874.5Q703 893 641 893Q403 893 403 555Q403 227 641 227Q729 227 804 250.5Q879 274 954 324L954 63Q880 16 804.5 -2Q729 -20 614 -20Z"/></g><g transform="translate(4941.055555555555 2048) scale (1 -1)"><path d="M1085 1118L1085 889L719 889L719 0L414 0L414 889L47 889L47 1118Z"/></g><g transform="translate(6074.055555555555 2048) scale (1 -1)"><path d="M893 1118L1229 1118L786 582L1268 0L922 0L465 567L465 0L160 0L160 1118L465 1118L465 575Z"/></g><g transform="translate(7342.055555555555 2048) scale (1 -1)"><path d="M870 0L811 152L803 152Q726 55 644.5 17.5Q563 -20 432 -20Q271 -20 178.5 72Q86 164 86 334Q86 512 210.5 596.5Q335 681 586 690L780 696L780 745Q780 915 606 915Q472 915 291 834L190 1040Q383 1141 618 1141Q843 1141 963 1043Q1083 945 1083 745L1083 0ZM780 518L662 514Q529 510 464 466Q399 422 399 332Q399 203 547 203Q653 203 716.5 264Q780 325 780 426Z"/></g><g transform="translate(9111.055555555555 2048) scale (1 -1)"><path d="M977 1124Q1257 1101 1416 951Q1575 801 1575 559Q1575 312 1418 163.5Q1261 15 977 -8L977 -492L694 -492L694 -8Q411 18 251.5 169.5Q92 321 92 559Q92 812 246 958.5Q400 1105 694 1124L694 1556L977 1556ZM406 559Q406 418 483 329.5Q560 241 694 223L694 895Q565 878 485.5 786Q406 694 406 559ZM1262 559Q1262 691 1187 781.5Q1112 872 977 891L977 223Q1110 241 1186 330Q1262 419 1262 559Z"/></g><g transform="translate(10778.055555555555 2048) scale (1 -1)"><path d="M774 -20Q577 -20 465 123L449 123Q465 -17 465 -39L465 -492L160 -492L160 1118L408 1118L451 973L465 973Q572 1139 782 1139Q980 1139 1092 986Q1204 833 1204 561Q1204 382 1151.5 250Q1099 118 1002 49Q905 -20 774 -20ZM684 895Q571 895 519 825.5Q467 756 465 596L465 563Q465 383 518.5 305Q572 227 688 227Q893 227 893 565Q893 730 842.5 812.5Q792 895 684 895Z"/></g><g transform="translate(12074.055555555555 2048) scale (1 -1)"><path d="M623 922Q526 922 471 860.5Q416 799 408 686L836 686Q834 799 777 860.5Q720 922 623 922ZM666 -20Q396 -20 244 129Q92 278 92 551Q92 832 232.5 985.5Q373 1139 621 1139Q858 1139 990 1004Q1122 869 1122 631L1122 483L401 483Q406 353 478 280Q550 207 680 207Q781 207 871 228Q961 249 1059 295L1059 59Q979 19 888 -0.5Q797 -20 666 -20Z"/></g><g transform="translate(13284.055555555555 2048) scale (1 -1)"><path d="M455 1118L455 676Q455 606 432 334L948 1118L1315 1118L1315 0L1020 0L1020 446Q1020 565 1040 782L526 0L160 0L160 1118ZM1225 1599Q1206 1412 1084 1326.5Q962 1241 732 1241Q495 1241 381.5 1323Q268 1405 254 1599L527 1599Q534 1496 578.5 1454.5Q623 1413 738 1413Q839 1413 888.5 1458.5Q938 1504 949 1599Z"/></g><g transform="translate(14759.055555555555 2048) scale (1 -1)"><path d="M1569 0L1284 0L1284 881L1268 819Q1214 608 1171 500L973 0L756 0L555 504Q512 614 463 813L444 881L444 0L160 0L160 1118L580 1118L772 641Q802 564 827.5 464Q853 364 862 293Q895 443 913.5 508.5Q932 574 954 629Q976 684 1153 1118L1569 1118Z"/></g><g transform="translate(16488.055555555555 2048) scale (1 -1)"><path d="M870 0L811 152L803 152Q726 55 644.5 17.5Q563 -20 432 -20Q271 -20 178.5 72Q86 164 86 334Q86 512 210.5 596.5Q335 681 586 690L780 696L780 745Q780 915 606 915Q472 915 291 834L190 1040Q383 1141 618 1141Q843 1141 963 1043Q1083 945 1083 745L1083 0ZM780 518L662 514Q529 510 464 466Q399 422 399 332Q399 203 547 203Q653 203 716.5 264Q780 325 780 426Z"/></g><g transform="translate(17725.055555555555 2048) scale (1 -1)"><path d="M1569 0L1284 0L1284 881L1268 819Q1214 608 1171 500L973 0L756 0L555 504Q512 614 463 813L444 881L444 0L160 0L160 1118L580 1118L772 641Q802 564 827.5 464Q853 364 862 293Q895 443 913.5 508.5Q932 574 954 629Q976 684 1153 1118L1569 1118Z"/></g><g transform="translate(19454.055555555555 2048) scale (1 -1)"><path d="M455 1118L455 676Q455 606 432 334L948 1118L1315 1118L1315 0L1020 0L1020 446Q1020 565 1040 782L526 0L160 0L160 1118Z"/></g></g></g><g transform="translate(173 67)"><rect x="0" y="0" width="90" height="20" rx="10" ry="10" style="fill:#E0E0E0;stroke:#707070;stroke-width:1px;"/><g transform="translate (5 5) scale(0.00439453125)" style="fill:#4F4F4F;"><g transform="translate(77.22222222222263 2048) scale (1 -1)"><path d="M1020 444L1034 444Q1195 444 1286.5 528.5Q1378 613 1378 760Q1378 896 1293 978.5Q1208 1061 1061 1061L1020 1061ZM741 -20L741 205L719 205Q533 205 393 270.5Q253 336 172.5 467Q92 598 92 758Q92 913 163.5 1037.5Q235 1162 370 1232.5Q505 1303 688 1303L741 1303L741 1483L1020 1483L1020 1303L1073 1303Q1255 1303 1390 1232.5Q1525 1162 1597 1037.5Q1669 913 1669 758Q1669 598 1588.5 467Q1508 336 1368 270.5Q1228 205 1042 205L1020 205L1020 -20ZM741 1061L700 1061Q553 1061 468 979Q383 897 383 760Q383 616 473 530Q563 444 727 444L741 444Z"/></g><g transform="translate(1838.2222222222226 2048) scale (1 -1)"><path d="M455 1118L455 676Q455 606 432 334L948 1118L1315 1118L1315 0L1020 0L1020 446Q1020 565 1040 782L526 0L160 0L160 1118Z"/></g><g transform="translate(3313.2222222222226 2048) scale (1 -1)"><path d="M893 1118L1229 1118L786 582L1268 0L922 0L465 567L465 0L160 0L160 1118L465 1118L465 575Z"/></g><g transform="translate(4581.222222222223 2048) scale (1 -1)"><path d="M614 -20Q92 -20 92 553Q92 838 234 988.5Q376 1139 641 1139Q835 1139 989 1063L899 827Q827 856 765 874.5Q703 893 641 893Q403 893 403 555Q403 227 641 227Q729 227 804 250.5Q879 274 954 324L954 63Q880 16 804.5 -2Q729 -20 614 -20Z"/></g><g transform="translate(5634.222222222223 2048) scale (1 -1)"><path d="M455 1118L455 676Q455 606 432 334L948 1118L1315 1118L1315 0L1020 0L1020 446Q1020 565 1040 782L526 0L160 0L160 1118Z"/></g><g transform="translate(7109.222222222223 2048) scale (1 -1)"><path d="M774 -20Q577 -20 465 123L449 123Q465 -17 465 -39L465 -492L160 -492L160 1118L408 1118L451 973L465 973Q572 1139 782 1139Q980 1139 1092 986Q1204 833 1204 561Q1204 382 1151.5 250Q1099 118 1002 49Q905 -20 774 -20ZM684 895Q571 895 519 825.5Q467 756 465 596L465 563Q465 383 518.5 305Q572 227 688 227Q893 227 893 565Q893 730 842.5 812.5Q792 895 684 895Z"/></g><g transform="translate(8405.222222222223 2048) scale (1 -1)"><path d="M403 561Q403 395 457.5 310Q512 225 635 225Q757 225 810.5 309.5Q864 394 864 561Q864 727 810 810Q756 893 633 893Q511 893 457 810.5Q403 728 403 561ZM1176 561Q1176 288 1032 134Q888 -20 631 -20Q470 -20 347 50.5Q224 121 158 253Q92 385 92 561Q92 835 235 987Q378 1139 637 1139Q798 1139 921 1069Q1044 999 1110 868Q1176 737 1176 561Z"/></g><g transform="translate(9673.222222222223 2048) scale (1 -1)"><path d="M1192 825Q1192 735 1135.5 671.5Q1079 608 969 590L969 582Q1088 568 1157.5 500.5Q1227 433 1227 334Q1227 171 1099 85.5Q971 0 733 0L160 0L160 1118L733 1118Q963 1118 1077.5 1043.5Q1192 969 1192 825ZM911 350Q911 416 860 445.5Q809 475 707 475L465 475L465 211L713 211Q810 211 860.5 247.5Q911 284 911 350ZM883 801Q883 903 721 903L465 903L465 682L686 682Q783 682 833 710Q883 738 883 801Z"/></g><g transform="translate(10982.222222222223 2048) scale (1 -1)"><path d="M870 0L811 152L803 152Q726 55 644.5 17.5Q563 -20 432 -20Q271 -20 178.5 72Q86 164 86 334Q86 512 210.5 596.5Q335 681 586 690L780 696L780 745Q780 915 606 915Q472 915 291 834L190 1040Q383 1141 618 1141Q843 1141 963 1043Q1083 945 1083 745L1083 0ZM780 518L662 514Q529 510 464 466Q399 422 399 332Q399 203 547 203Q653 203 716.5 264Q780 325 780 426Z"/></g><g transform="translate(12219.222222222223 2048) scale (1 -1)"><path d="M465 1118L465 688L891 688L891 1118L1196 1118L1196 0L891 0L891 461L465 461L465 0L160 0L160 1118Z"/></g><g transform="translate(13575.222222222223 2048) scale (1 -1)"><path d="M465 1118L465 688L891 688L891 1118L1196 1118L1196 0L891 0L891 461L465 461L465 0L160 0L160 1118Z"/></g><g transform="translate(14931.222222222223 2048) scale (1 -1)"><path d="M465 686L612 686Q868 686 991 604Q1114 522 1114 356Q1114 179 991 89.5Q868 0 623 0L160 0L160 1118L465 1118ZM809 352Q809 417 757 446Q705 475 602 475L465 475L465 211L606 211Q809 211 809 352ZM1581 0L1276 0L1276 1118L1581 1118Z"/></g><g transform="translate(16672.222222222223 2048) scale (1 -1)"><path d="M455 1118L455 676Q455 606 432 334L948 1118L1315 1118L1315 0L1020 0L1020 446Q1020 565 1040 782L526 0L160 0L160 1118ZM1225 1599Q1206 1412 1084 1326.5Q962 1241 732 1241Q495 1241 381.5 1323Q268 1405 254 1599L527 1599Q534 1496 578.5 1454.5Q623 1413 738 1413Q839 1413 888.5 1458.5Q938 1504 949 1599Z"/></g></g></g><g transform="translate(173 107)"><rect x="0" y="0" width="64" height="20" rx="10" ry="10" style="fill:#E0E0E0;stroke:#707070;stroke-width:1px;"/><g transform="translate (5 5) scale(0.00439453125)" style="fill:#4F4F4F;"><g transform="translate(15.5 2048) scale (1 -1)"><path d="M494 774L596 774Q739 774 810 830.5Q881 887 881 995Q881 1104 821.5 1156Q762 1208 635 1208L494 1208ZM1194 1006Q1194 770 1046.5 645Q899 520 627 520L494 520L494 0L184 0L184 1462L651 1462Q917 1462 1055.5 1347.5Q1194 1233 1194 1006Z"/></g><g transform="translate(1301.5 2048) scale (1 -1)"><path d="M623 922Q526 922 471 860.5Q416 799 408 686L836 686Q834 799 777 860.5Q720 922 623 922ZM666 -20Q396 -20 244 129Q92 278 92 551Q92 832 232.5 985.5Q373 1139 621 1139Q858 1139 990 1004Q1122 869 1122 631L1122 483L401 483Q406 353 478 280Q550 207 680 207Q781 207 871 228Q961 249 1059 295L1059 59Q979 19 888 -0.5Q797 -20 666 -20Z"/></g><g transform="translate(2511.5 2048) scale (1 -1)"><path d="M438 688Q611 688 683.5 716Q756 744 756 805Q756 859 703 886Q650 913 528 913Q451 913 353.5 894Q256 875 176 842L86 1055Q205 1100 317 1119.5Q429 1139 567 1139Q776 1139 902 1059Q1028 979 1028 842Q1028 653 805 596L805 586Q942 552 1000.5 489.5Q1059 427 1059 326Q1059 224 993 145Q927 66 802 23Q677 -20 508 -20Q228 -20 78 49L78 301Q164 261 266.5 238Q369 215 465 215Q614 215 688 248.5Q762 282 762 344Q762 412 684 444.5Q606 477 444 477L326 477L326 688Z"/></g><g transform="translate(3648.5 2048) scale (1 -1)"><path d="M455 1118L455 676Q455 606 432 334L948 1118L1315 1118L1315 0L1020 0L1020 446Q1020 565 1040 782L526 0L160 0L160 1118Z"/></g><g transform="translate(5123.5 2048) scale (1 -1)"><path d="M465 1118L465 688L891 688L891 1118L1196 1118L1196 0L891 0L891 461L465 461L465 0L160 0L160 1118Z"/></g><g transform="translate(6479.5 2048) scale (1 -1)"><path d="M403 561Q403 395 457.5 310Q512 225 635 225Q757 225 810.5 309.5Q864 394 864 561Q864 727 810 810Q756 893 633 893Q511 893 457 810.5Q403 728 403 561ZM1176 561Q1176 288 1032 134Q888 -20 631 -20Q470 -20 347 50.5Q224 121 158 253Q92 385 92 561Q92 835 235 987Q378 1139 637 1139Q798 1139 921 1069Q1044 999 1110 868Q1176 737 1176 561Z"/></g><g transform="translate(7747.5 2048) scale (1 -1)"><path d="M1192 825Q1192 735 1135.5 671.5Q1079 608 969 590L969 582Q1088 568 1157.5 500.5Q1227 433 1227 334Q1227 171 1099 85.5Q971 0 733 0L160 0L160 1118L733 1118Q963 1118 1077.5 1043.5Q1192 969 1192 825ZM911 350Q911 416 860 445.5Q809 475 707 475L465 475L465 211L713 211Q810 211 860.5 247.5Q911 284 911 350ZM883 801Q883 903 721 903L465 903L465 682L686 682Q783 682 833 710Q883 738 883 801Z"/></g><g transform="translate(9056.5 2048) scale (1 -1)"><path d="M465 686L612 686Q868 686 991 604Q1114 522 1114 356Q1114 179 991 89.5Q868 0 623 0L160 0L160 1118L465 1118ZM809 352Q809 417 757 446Q705 475 602 475L465 475L465 211L606 211Q809 211 809 352ZM1581 0L1276 0L1276 1118L1581 1118Z"/></g><g transform="translate(10797.5 2048) scale (1 -1)"><path d="M455 1118L455 676Q455 606 432 334L948 1118L1315 1118L1315 0L1020 0L1020 446Q1020 565 1040 782L526 0L160 0L160 1118ZM1225 1599Q1206 1412 1084 1326.5Q962 1241 732 1241Q495 1241 381.5 1323Q268 1405 254 1599L527 1599Q534 1496 578.5 1454.5Q623 1413 738 1413Q839 1413 888.5 1458.5Q938 1504 949 1599Z"/></g></g></g><g transform="translate(173 147)"><rect x="0" y="0" width="71" height="20" rx="10" ry="10" style="fill:#E0E0E0;stroke:#707070;stroke-width:1px;"/><g transform="translate (5 5) scale(0.00439453125)" style="fill:#4F4F4F;"><g transform="translate(23.444444444444343 2048) scale (1 -1)"><path d="M1079 0L973 348L440 348L334 0L0 0L516 1468L895 1468L1413 0ZM899 608Q752 1081 733.5 1143Q715 1205 707 1241Q674 1113 518 608Z"/></g><g transform="translate(1436.4444444444443 2048) scale (1 -1)"><path d="M860 223L860 889L631 889Q606 703 562.5 536Q519 369 442 223ZM1329 -401L1055 -401L1055 0L303 0L303 -401L29 -401L29 223L123 223Q219 372 284 599Q349 826 375 1118L1165 1118L1165 223L1329 223Z"/></g><g transform="translate(2796.4444444444443 2048) scale (1 -1)"><path d="M870 0L811 152L803 152Q726 55 644.5 17.5Q563 -20 432 -20Q271 -20 178.5 72Q86 164 86 334Q86 512 210.5 596.5Q335 681 586 690L780 696L780 745Q780 915 606 915Q472 915 291 834L190 1040Q383 1141 618 1141Q843 1141 963 1043Q1083 945 1083 745L1083 0ZM780 518L662 514Q529 510 464 466Q399 422 399 332Q399 203 547 203Q653 203 716.5 264Q780 325 780 426Z"/></g><g transform="translate(4033.4444444444443 2048) scale (1 -1)"><path d="M1176 1118L1176 0L870 0L870 889L465 889L465 0L160 0L160 1118Z"/></g><g transform="translate(5368.444444444444 2048) scale (1 -1)"><path d="M1085 1118L1085 889L719 889L719 0L414 0L414 889L47 889L47 1118Z"/></g><g transform="translate(6501.444444444444 2048) scale (1 -1)"><path d="M455 1118L455 676Q455 606 432 334L948 1118L1315 1118L1315 0L1020 0L1020 446Q1020 565 1040 782L526 0L160 0L160 1118Z"/></g><g transform="translate(7976.444444444444 2048) scale (1 -1)"><path d="M1192 825Q1192 735 1135.5 671.5Q1079 608 969 590L969 582Q1088 568 1157.5 500.5Q1227 433 1227 334Q1227 171 1099 85.5Q971 0 733 0L160 0L160 1118L733 1118Q963 1118 1077.5 1043.5Q1192 969 1192 825ZM911 350Q911 416 860 445.5Q809 475 707 475L465 475L465 211L713 211Q810 211 860.5 247.5Q911 284 911 350ZM883 801Q883 903 721 903L465 903L465 682L686 682Q783 682 833 710Q883 738 883 801Z"/></g><g transform="translate(9285.444444444445 2048) scale (1 -1)"><path d="M465 1118L465 688L891 688L891 1118L1196 1118L1196 0L891 0L891 461L465 461L465 0L160 0L160 1118Z"/></g><g transform="translate(10641.444444444445 2048) scale (1 -1)"><path d="M465 686L612 686Q868 686 991 604Q1114 522 1114 356Q1114 179 991 89.5Q868 0 623 0L160 0L160 1118L465 1118ZM809 352Q809 417 757 446Q705 475 602 475L465 475L465 211L606 211Q809 211 809 352ZM1581 0L1276 0L1276 1118L1581 1118Z"/></g><g transform="translate(12382.444444444445 2048) scale (1 -1)"><path d="M455 1118L455 676Q455 606 432 334L948 1118L1315 1118L1315 0L1020 0L1020 446Q1020 565 1040 782L526 0L160 0L160 1118ZM1225 1599Q1206 1412 1084 1326.5Q962 1241 732 1241Q495 1241 381.5 1323Q268 1405 254 1599L527 1599Q534 1496 578.5 1454.5Q623 1413 738 1413Q839 1413 888.5 1458.5Q938 1504 949 1599Z"/></g></g></g><g transform="translate(170 187)"><rect x="0" y="0" width="148" height="20" rx="10" ry="10" style="fill:#E0E0E0;stroke:#707070;stroke-width:1px;"/><g transform="translate (5 5) scale(0.00439453125)" style="fill:#4F4F4F;"><g transform="translate(104.83333333333394 2048) scale (1 -1)"><path d="M184 1462L463 1462L463 756L459 567L449 352L455 352L1130 1462L1501 1462L1501 0L1225 0L1225 702Q1225 843 1243 1120L1235 1120L557 0L184 0Z"/></g><g transform="translate(1790.833333333334 2048) scale (1 -1)"><path d="M465 1118L465 688L891 688L891 1118L1196 1118L1196 0L891 0L891 461L465 461L465 0L160 0L160 1118Z"/></g><g transform="translate(3146.833333333334 2048) scale (1 -1)"><path d="M614 -20Q92 -20 92 553Q92 838 234 988.5Q376 1139 641 1139Q835 1139 989 1063L899 827Q827 856 765 874.5Q703 893 641 893Q403 893 403 555Q403 227 641 227Q729 227 804 250.5Q879 274 954 324L954 63Q880 16 804.5 -2Q729 -20 614 -20Z"/></g><g transform="translate(4199.833333333334 2048) scale (1 -1)"><path d="M1085 1118L1085 889L719 889L719 0L414 0L414 889L47 889L47 1118Z"/></g><g transform="translate(5332.833333333334 2048) scale (1 -1)"><path d="M774 -20Q577 -20 465 123L449 123Q465 -17 465 -39L465 -492L160 -492L160 1118L408 1118L451 973L465 973Q572 1139 782 1139Q980 1139 1092 986Q1204 833 1204 561Q1204 382 1151.5 250Q1099 118 1002 49Q905 -20 774 -20ZM684 895Q571 895 519 825.5Q467 756 465 596L465 563Q465 383 518.5 305Q572 227 688 227Q893 227 893 565Q893 730 842.5 812.5Q792 895 684 895Z"/></g><g transform="translate(6628.833333333334 2048) scale (1 -1)"><path d="M0 1118L334 1118L545 489Q572 407 582 295L588 295Q599 398 631 489L838 1118L1165 1118L692 -143Q627 -318 506.5 -405Q386 -492 225 -492Q146 -492 70 -475L70 -233Q125 -246 190 -246Q271 -246 331.5 -196.5Q392 -147 426 -47L444 8Z"/></g><g transform="translate(7793.833333333334 2048) scale (1 -1)"><path d="M1569 0L1284 0L1284 881L1268 819Q1214 608 1171 500L973 0L756 0L555 504Q512 614 463 813L444 881L444 0L160 0L160 1118L580 1118L772 641Q802 564 827.5 464Q853 364 862 293Q895 443 913.5 508.5Q932 574 954 629Q976 684 1153 1118L1569 1118Z"/></g><g transform="translate(9522.833333333334 2048) scale (1 -1)"><path d="M623 922Q526 922 471 860.5Q416 799 408 686L836 686Q834 799 777 860.5Q720 922 623 922ZM666 -20Q396 -20 244 129Q92 278 92 551Q92 832 232.5 985.5Q373 1139 621 1139Q858 1139 990 1004Q1122 869 1122 631L1122 483L401 483Q406 353 478 280Q550 207 680 207Q781 207 871 228Q961 249 1059 295L1059 59Q979 19 888 -0.5Q797 -20 666 -20Z"/></g><g transform="translate(10732.833333333334 2048) scale (1 -1)"><path d="M465 1118L465 688L891 688L891 1118L1196 1118L1196 0L891 0L891 461L465 461L465 0L160 0L160 1118Z"/></g><g transform="translate(12088.833333333334 2048) scale (1 -1)"><path d="M1085 1118L1085 889L719 889L719 0L414 0L414 889L47 889L47 1118Z"/></g><g transform="translate(13221.833333333334 2048) scale (1 -1)"><path d="M465 686L612 686Q868 686 991 604Q1114 522 1114 356Q1114 179 991 89.5Q868 0 623 0L160 0L160 1118L465 1118ZM809 352Q809 417 757 446Q705 475 602 475L465 475L465 211L606 211Q809 211 809 352ZM1581 0L1276 0L1276 1118L1581 1118Z"/></g><g transform="translate(15494.833333333334 2048) scale (1 -1)"><path d="M1192 825Q1192 735 1135.5 671.5Q1079 608 969 590L969 582Q1088 568 1157.5 500.5Q1227 433 1227 334Q1227 171 1099 85.5Q971 0 733 0L160 0L160 1118L733 1118Q963 1118 1077.5 1043.5Q1192 969 1192 825ZM911 350Q911 416 860 445.5Q809 475 707 475L465 475L465 211L713 211Q810 211 860.5 247.5Q911 284 911 350ZM883 801Q883 903 721 903L465 903L465 682L686 682Q783 682 833 710Q883 738 883 801Z"/></g><g transform="translate(16803.833333333336 2048) scale (1 -1)"><path d="M623 922Q526 922 471 860.5Q416 799 408 686L836 686Q834 799 777 860.5Q720 922 623 922ZM666 -20Q396 -20 244 129Q92 278 92 551Q92 832 232.5 985.5Q373 1139 621 1139Q858 1139 990 1004Q1122 869 1122 631L1122 483L401 483Q406 353 478 280Q550 207 680 207Q781 207 871 228Q961 249 1059 295L1059 59Q979 19 888 -0.5Q797 -20 666 -20Z"/></g><g transform="translate(18013.833333333336 2048) scale (1 -1)"><path d="M774 -20Q577 -20 465 123L449 123Q465 -17 465 -39L465 -492L160 -492L160 1118L408 1118L451 973L465 973Q572 1139 782 1139Q980 1139 1092 986Q1204 833 1204 561Q1204 382 1151.5 250Q1099 118 1002 49Q905 -20 774 -20ZM684 895Q571 895 519 825.5Q467 756 465 596L465 563Q465 383 518.5 305Q572 227 688 227Q893 227 893 565Q893 730 842.5 812.5Q792 895 684 895Z"/></g><g transform="translate(19309.833333333336 2048) scale (1 -1)"><path d="M614 -20Q92 -20 92 553Q92 838 234 988.5Q376 1139 641 1139Q835 1139 989 1063L899 827Q827 856 765 874.5Q703 893 641 893Q403 893 403 555Q403 227 641 227Q729 227 804 250.5Q879 274 954 324L954 63Q880 16 804.5 -2Q729 -20 614 -20Z"/></g><g transform="translate(20362.833333333336 2048) scale (1 -1)"><path d="M1085 1118L1085 889L719 889L719 0L414 0L414 889L47 889L47 1118Z"/></g><g transform="translate(21495.833333333336 2048) scale (1 -1)"><path d="M870 0L811 152L803 152Q726 55 644.5 17.5Q563 -20 432 -20Q271 -20 178.5 72Q86 164 86 334Q86 512 210.5 596.5Q335 681 586 690L780 696L780 745Q780 915 606 915Q472 915 291 834L190 1040Q383 1141 618 1141Q843 1141 963 1043Q1083 945 1083 745L1083 0ZM780 518L662 514Q529 510 464 466Q399 422 399 332Q399 203 547 203Q653 203 716.5 264Q780 325 780 426Z"/></g><g transform="translate(22732.833333333336 2048) scale (1 -1)"><path d="M1161 0L856 0L856 889L575 889Q543 514 497 329.5Q451 145 374.5 62.5Q298 -20 174 -20Q68 -20 0 12L0 256Q49 236 98 236Q155 236 193.5 318Q232 400 262.5 591.5Q293 783 315 1118L1161 1118Z"/></g><g transform="translate(24053.833333333336 2048) scale (1 -1)"><path d="M465 686L680 686Q938 686 1062 604Q1186 522 1186 356Q1186 0 692 0L160 0L160 1118L465 1118ZM881 352Q881 417 829 446Q777 475 674 475L465 475L465 211L678 211Q881 211 881 352Z"/></g><g transform="translate(25310.833333333336 2048) scale (1 -1)"><path d="M1825 223L1989 223L1989 -401L1714 -401L1714 0L160 0L160 1118L465 1118L465 229L840 229L840 1118L1145 1118L1145 229L1520 229L1520 1118L1825 1118Z"/></g><g transform="translate(27327.833333333336 2048) scale (1 -1)"><path d="M455 1118L455 676Q455 606 432 334L948 1118L1315 1118L1315 0L1020 0L1020 446Q1020 565 1040 782L526 0L160 0L160 1118Z"/></g><g transform="translate(28802.833333333336 2048) scale (1 -1)"><path d="M893 1118L1229 1118L786 582L1268 0L922 0L465 567L465 0L160 0L160 1118L465 1118L465 575Z"/></g><g transform="translate(30070.833333333336 2048) scale (1 -1)"><path d="M870 0L811 152L803 152Q726 55 644.5 17.5Q563 -20 432 -20Q271 -20 178.5 72Q86 164 86 334Q86 512 210.5 596.5Q335 681 586 690L780 696L780 745Q780 915 606 915Q472 915 291 834L190 1040Q383 1141 618 1141Q843 1141 963 1043Q1083 945 1083 745L1083 0ZM780 518L662 514Q529 510 464 466Q399 422 399 332Q399 203 547 203Q653 203 716.5 264Q780 325 780 426Z"/></g></g></g><g transform="translate(75 -213)"><rect x="0" y="0" width="81" height="20" rx="10" ry="10" style="fill:#E0E0E0;stroke:#707070;stroke-width:1px;"/><g transform="translate (5 5) scale(0.00439453125)" style="fill:#4F4F4F;"><g transform="translate(38.222222222222626 2048) scale (1 -1)"><path d="M553 1225Q454 1225 358.5 1197Q263 1169 170 1130L72 1380Q304 1483 559 1483Q884 1483 1061.5 1283.5Q1239 1084 1239 729Q1239 367 1056.5 173.5Q874 -20 530 -20Q293 -20 98 55L98 315Q341 238 512 238Q895 238 913 610L279 610L279 864L911 864Q905 1034 809 1129.5Q713 1225 553 1225Z"/></g><g transform="translate(1396.2222222222226 2048) scale (1 -1)"><path d="M1085 1118L1085 889L719 889L719 0L414 0L414 889L47 889L47 1118Z"/></g><g transform="translate(2529.2222222222226 2048) scale (1 -1)"><path d="M870 0L811 152L803 152Q726 55 644.5 17.5Q563 -20 432 -20Q271 -20 178.5 72Q86 164 86 334Q86 512 210.5 596.5Q335 681 586 690L780 696L780 745Q780 915 606 915Q472 915 291 834L190 1040Q383 1141 618 1141Q843 1141 963 1043Q1083 945 1083 745L1083 0ZM780 518L662 514Q529 510 464 466Q399 422 399 332Q399 203 547 203Q653 203 716.5 264Q780 325 780 426Z"/></g><g transform="translate(3766.2222222222226 2048) scale (1 -1)"><path d="M1176 1118L1176 0L870 0L870 889L465 889L465 0L160 0L160 1118Z"/></g><g transform="translate(5101.222222222223 2048) scale (1 -1)"><path d="M465 686L612 686Q868 686 991 604Q1114 522 1114 356Q1114 179 991 89.5Q868 0 623 0L160 0L160 1118L465 1118ZM809 352Q809 417 757 446Q705 475 602 475L465 475L465 211L606 211Q809 211 809 352ZM1581 0L1276 0L1276 1118L1581 1118Z"/></g><g transform="translate(7374.222222222223 2048) scale (1 -1)"><path d="M1192 825Q1192 735 1135.5 671.5Q1079 608 969 590L969 582Q1088 568 1157.5 500.5Q1227 433 1227 334Q1227 171 1099 85.5Q971 0 733 0L160 0L160 1118L733 1118Q963 1118 1077.5 1043.5Q1192 969 1192 825ZM911 350Q911 416 860 445.5Q809 475 707 475L465 475L465 211L713 211Q810 211 860.5 247.5Q911 284 911 350ZM883 801Q883 903 721 903L465 903L465 682L686 682Q783 682 833 710Q883 738 883 801Z"/></g><g transform="translate(8683.222222222223 2048) scale (1 -1)"><path d="M623 922Q526 922 471 860.5Q416 799 408 686L836 686Q834 799 777 860.5Q720 922 623 922ZM666 -20Q396 -20 244 129Q92 278 92 551Q92 832 232.5 985.5Q373 1139 621 1139Q858 1139 990 1004Q1122 869 1122 631L1122 483L401 483Q406 353 478 280Q550 207 680 207Q781 207 871 228Q961 249 1059 295L1059 59Q979 19 888 -0.5Q797 -20 666 -20Z"/></g><g transform="translate(9893.222222222223 2048) scale (1 -1)"><path d="M774 -20Q577 -20 465 123L449 123Q465 -17 465 -39L465 -492L160 -492L160 1118L408 1118L451 973L465 973Q572 1139 782 1139Q980 1139 1092 986Q1204 833 1204 561Q1204 382 1151.5 250Q1099 118 1002 49Q905 -20 774 -20ZM684 895Q571 895 519 825.5Q467 756 465 596L465 563Q465 383 518.5 305Q572 227 688 227Q893 227 893 565Q893 730 842.5 812.5Q792 895 684 895Z"/></g><g transform="translate(11189.222222222223 2048) scale (1 -1)"><path d="M614 -20Q92 -20 92 553Q92 838 234 988.5Q376 1139 641 1139Q835 1139 989 1063L899 827Q827 856 765 874.5Q703 893 641 893Q403 893 403 555Q403 227 641 227Q729 227 804 250.5Q879 274 954 324L954 63Q880 16 804.5 -2Q729 -20 614 -20Z"/></g><g transform="translate(12242.222222222223 2048) scale (1 -1)"><path d="M1085 1118L1085 889L719 889L719 0L414 0L414 889L47 889L47 1118Z"/></g><g transform="translate(13375.222222222223 2048) scale (1 -1)"><path d="M893 1118L1229 1118L786 582L1268 0L922 0L465 567L465 0L160 0L160 1118L465 1118L465 575Z"/></g><g transform="translate(14643.222222222223 2048) scale (1 -1)"><path d="M455 1118L455 676Q455 606 432 334L948 1118L1315 1118L1315 0L1020 0L1020 446Q1020 565 1040 782L526 0L160 0L160 1118Z"/></g></g></g></g></svg>